<svg width="300" height="196" viewBox="0 0 300 196" fill="none" xmlns="http://www.w3.org/2000/svg">
<rect x="12.5" y="12.5" width="287" height="183" rx="19.5" fill="#9BFCE6" stroke="black"/>
<rect x="0.5" y="0.5" width="287" height="183" rx="19.5" fill="white" stroke="black"/>
<path d="M112.016 79.0197C117.401 79.0197 118.391 83.6823 119.151 85.7473C120.063 88.1452 120.747 93.2742 120.747 96.8711C120.747 100.468 118.315 102.133 115.352 101.068V125.846C115.352 126.513 115.2 127.112 114.82 127.645C114.288 128.444 113.224 129.377 111.173 129.244C111.173 129.244 107.373 129.443 107.373 124.914C107.373 129.443 103.574 129.244 103.574 129.244C101.522 129.377 100.459 128.511 99.9268 127.645C99.5469 127.112 99.3949 126.446 99.3949 125.846V101.068C96.3555 102.133 94 100.468 94 96.8711C94 93.3408 94.6839 88.2118 95.5957 85.7473C96.4315 83.6157 97.3139 79.0197 101.312 79.0197" stroke="#4E0F5D" stroke-width="6" stroke-miterlimit="10" stroke-linecap="round" stroke-linejoin="round"/>
<path d="M107.373 124.847L107.373 108.469" stroke="#4E0F5D" stroke-width="6" stroke-miterlimit="10" stroke-linecap="round" stroke-linejoin="round"/>
<path d="M106.639 71.5395C111.482 71.5395 115.409 67.6132 115.409 62.7698C115.409 57.9264 111.482 54 106.639 54C101.795 54 97.869 57.9264 97.869 62.7698C97.869 67.6132 101.795 71.5395 106.639 71.5395Z" stroke="#4E0F5D" stroke-width="6" stroke-miterlimit="10" stroke-linecap="round" stroke-linejoin="round"/>
<path d="M148.642 79.0197C154.026 79.0197 155.017 83.6823 155.777 85.7473C156.689 88.1452 157.373 93.2742 157.373 96.8711C157.373 100.468 154.941 102.133 151.978 101.068V125.846C151.978 126.513 151.826 127.112 151.446 127.645C150.914 128.444 149.85 129.377 147.798 129.244C147.798 129.244 143.999 129.443 143.999 124.914C143.999 129.443 140.2 129.244 140.2 129.244C138.148 129.377 137.085 128.511 136.553 127.645C136.173 127.112 136.021 126.446 136.021 125.846V101.068C132.981 102.133 130.626 100.468 130.626 96.8711C130.626 93.3408 131.31 88.2118 132.222 85.7473C133.057 83.6157 133.94 79.0197 137.938 79.0197" stroke="#4E0F5D" stroke-width="6" stroke-miterlimit="10" stroke-linecap="round" stroke-linejoin="round"/>
<path d="M143.999 124.847L143.999 108.469" stroke="#4E0F5D" stroke-width="6" stroke-miterlimit="10" stroke-linecap="round" stroke-linejoin="round"/>
<path d="M143.265 71.5395C148.108 71.5395 152.035 67.6132 152.035 62.7698C152.035 57.9264 148.108 54 143.265 54C138.422 54 134.495 57.9264 134.495 62.7698C134.495 67.6132 138.422 71.5395 143.265 71.5395Z" stroke="#4E0F5D" stroke-width="6" stroke-miterlimit="10" stroke-linecap="round" stroke-linejoin="round"/>
<path d="M185.271 79.0197C190.655 79.0197 191.646 83.6823 192.406 85.7473C193.318 88.1452 194.001 93.2742 194.001 96.8711C194.001 100.468 191.57 102.133 188.606 101.068V125.846C188.606 126.513 188.455 127.112 188.075 127.645C187.543 128.444 186.479 129.377 184.427 129.244C184.427 129.244 180.628 129.443 180.628 124.914C180.628 129.443 176.829 129.244 176.829 129.244C174.777 129.377 173.713 128.511 173.182 127.645C172.802 127.112 172.65 126.446 172.65 125.846V101.068C169.61 102.133 167.255 100.468 167.255 96.8711C167.255 93.3408 167.939 88.2118 168.85 85.7473C169.686 83.6157 170.569 79.0197 174.567 79.0197" stroke="#4E0F5D" stroke-width="6" stroke-miterlimit="10" stroke-linecap="round" stroke-linejoin="round"/>
<path d="M180.628 124.847L180.628 108.469" stroke="#4E0F5D" stroke-width="6" stroke-miterlimit="10" stroke-linecap="round" stroke-linejoin="round"/>
<path d="M179.893 71.5395C184.736 71.5395 188.663 67.6132 188.663 62.7698C188.663 57.9264 184.736 54 179.893 54C175.049 54 171.123 57.9264 171.123 62.7698C171.123 67.6132 175.049 71.5395 179.893 71.5395Z" stroke="#4E0F5D" stroke-width="6" stroke-miterlimit="10" stroke-linecap="round" stroke-linejoin="round"/>
</svg>
