<svg width="300" height="196" viewBox="0 0 300 196" fill="none" xmlns="http://www.w3.org/2000/svg">
<rect x="12.5" y="12.5" width="287" height="183" rx="19.5" fill="#9BFCE6" stroke="black"/>
<rect x="0.5" y="0.5" width="287" height="183" rx="19.5" fill="white" stroke="black"/>
<path d="M101.396 89.1429C100.25 79.5599 99.9375 70.8102 99.9375 63.1021C116.083 60.9147 132.124 58.7272 148.269 56.5398C150.457 63.3104 152.644 71.331 154.207 80.4974" stroke="#4E0F5D" stroke-width="6" stroke-miterlimit="10" stroke-linecap="round" stroke-linejoin="round"/>
<path d="M103.583 103.622C104.937 110.601 106.5 116.955 108.062 122.579L140.873 118.1" stroke="#4E0F5D" stroke-width="6" stroke-miterlimit="10" stroke-linecap="round" stroke-linejoin="round"/>
<path d="M100.039 62.0219L94 50.7081L101.187 53.1038C102.646 53.5205 104.104 53.4163 105.354 52.583L111.083 49.0415C112.02 48.5207 113.062 48.4165 113.999 48.6248L120.562 50.2914C122.124 50.7081 123.895 50.3956 125.249 49.5623L130.457 46.2291C131.603 45.4999 133.061 45.2916 134.311 45.7082L140.144 47.5832C141.29 47.9998 142.644 47.7915 143.686 47.1665L151.081 43L148.046 55.9832" stroke="#4E0F5D" stroke-width="6" stroke-miterlimit="10" stroke-linecap="round" stroke-linejoin="round"/>
<path d="M108.099 125.126L104.87 135.751L111.12 131.48C112.37 130.647 113.932 130.439 115.286 130.855L121.745 132.73C122.682 133.043 123.724 132.938 124.557 132.418L130.39 129.084C131.848 128.251 133.515 128.043 135.077 128.564L140.181 130.126" stroke="#4E0F5D" stroke-width="6" stroke-miterlimit="10" stroke-linecap="round" stroke-linejoin="round"/>
<path d="M181.047 60.0063L176.151 58.9923L174.229 68.274L179.125 69.288L181.047 60.0063Z" fill="#FA51B6"/>
<path d="M193.9 98.4544C194.108 100.746 194.004 103.038 193.483 105.433L187.338 135.224C186.713 138.036 184.004 139.807 181.192 139.286L145.256 131.891C142.443 131.266 140.672 128.558 141.193 125.745L147.339 95.9545C150.047 83.1424 162.547 75.0176 175.255 77.6217C181.609 78.9759 186.817 82.7257 190.15 87.7256C190.567 88.4547 190.983 89.1839 191.4 89.913" stroke="#4E0F5D" stroke-width="6" stroke-miterlimit="10" stroke-linecap="round" stroke-linejoin="round"/>
<path d="M162.651 78.455L164.422 69.8094C164.839 67.9345 166.714 66.6845 168.589 66.997L186.088 70.6427C187.963 71.0594 189.213 72.9343 188.796 74.8093L186.921 83.8715" stroke="#4E0F5D" stroke-width="6" stroke-miterlimit="10" stroke-linecap="round" stroke-linejoin="round"/>
<path d="M188.536 55.3608L170.31 51.5103C169.284 51.2536 168.257 51.8954 168 53.0505L167.487 55.3608C167.23 56.3876 167.872 57.4144 169.027 57.6711L187.253 61.3933L186.739 64.0886C186.482 65.1154 187.124 66.1422 188.279 66.3989L190.59 66.9123C191.616 67.169 192.643 66.5273 192.9 65.3721L193.413 62.6768L193.927 59.8531C194.312 58.0562 193.157 56.3876 191.36 56.0026L188.536 55.3608Z" fill="#4E0F5D"/>
<path d="M193.171 107.1L147.131 97.5169" stroke="#4E0F5D" stroke-width="6" stroke-miterlimit="10" stroke-linecap="round" stroke-linejoin="round"/>
<path d="M144.11 111.891L189.421 121.37" stroke="#4E0F5D" stroke-width="6" stroke-miterlimit="10" stroke-linecap="round" stroke-linejoin="round"/>
<path d="M132.644 100.314C136.961 98.1816 138.156 91.7868 135.313 86.0309C132.469 80.275 126.665 77.3376 122.348 79.4701C118.031 81.6025 116.836 87.9973 119.68 93.7532C122.523 99.5091 128.327 102.446 132.644 100.314Z" fill="#BAFEF1"/>
</svg>
