<svg width="300" height="196" viewBox="0 0 300 196" fill="none" xmlns="http://www.w3.org/2000/svg">
<rect x="12.5" y="12.5" width="287" height="183" rx="19.5" fill="#C7C9FD" stroke="black"/>
<rect x="0.5" y="0.5" width="287" height="183" rx="19.5" fill="white" stroke="black"/>
<path d="M102 56.8538L144.021 44.8889L186 56.8538V81.3891C186 93.9633 181.944 106.219 174.407 116.419C166.87 126.619 156.235 134.247 144.007 138.222C131.776 134.248 121.136 126.619 113.597 116.416C106.057 106.214 102 93.9553 102 81.3777V56.8538Z" stroke="#BAFEF1" stroke-width="12" stroke-linejoin="round"/>
<circle cx="143.725" cy="115.712" r="7.68627" fill="#FD4CB7"/>
<path d="M143.625 104.048C155.109 104.048 164.42 94.7373 164.42 83.2526C164.42 71.7678 155.109 62.4575 143.625 62.4575C132.14 62.4575 122.83 71.7678 122.83 83.2526C122.83 94.7373 132.14 104.048 143.625 104.048Z" stroke="#4F085E" stroke-width="6" stroke-linecap="round" stroke-linejoin="round"/>
<path d="M143.625 62.4575C148.245 63.6116 150.556 70.5433 150.556 83.2526C150.556 95.9618 148.245 102.893 143.625 104.048M143.625 62.4575C139.005 63.6116 136.693 70.5433 136.693 83.2526C136.693 95.9618 139.005 102.893 143.625 104.048M122.83 83.2526H164.42M112.432 117.911H136.693M150.556 117.911H174.817" stroke="#4F085E" stroke-width="6" stroke-linecap="round" stroke-linejoin="round"/>
<path d="M143.625 124.843C147.453 124.843 150.556 121.739 150.556 117.911C150.556 114.083 147.453 110.979 143.625 110.979C139.796 110.979 136.693 114.083 136.693 117.911C136.693 121.739 139.796 124.843 143.625 124.843Z" stroke="#4F085E" stroke-width="6" stroke-linecap="round" stroke-linejoin="round"/>
<path d="M143.625 104.048V110.979" stroke="#4F085E" stroke-width="6" stroke-linecap="round" stroke-linejoin="round"/>
</svg>
