<svg width="96" height="107" viewBox="0 0 96 107" fill="none" xmlns="http://www.w3.org/2000/svg">
<path d="M6 18.8538L48.021 6.88892L90 18.8538V43.3891C89.9998 55.9633 85.9439 68.2187 78.4071 78.419C70.8703 88.6193 60.2347 96.2473 48.007 100.222C35.7756 96.2478 25.1363 88.6188 17.5969 78.4163C10.0575 68.2138 6.00019 55.9553 6 43.3777V18.8538Z" stroke="#BAFEF1" stroke-width="12" stroke-linejoin="round"/>
<circle cx="47.7252" cy="77.7124" r="7.68627" fill="#FD4CB7"/>
<path d="M47.6247 66.0476C59.1095 66.0476 68.4197 56.7373 68.4197 45.2526C68.4197 33.7678 59.1095 24.4575 47.6247 24.4575C36.1399 24.4575 26.8297 33.7678 26.8297 45.2526C26.8297 56.7373 36.1399 66.0476 47.6247 66.0476Z" stroke="#4F085E" stroke-width="6" stroke-linecap="round" stroke-linejoin="round"/>
<path d="M47.6247 24.4575C52.2447 25.6116 54.5564 32.5433 54.5564 45.2526C54.5564 57.9618 52.2447 64.8935 47.6247 66.0476M47.6247 24.4575C43.0048 25.6116 40.6931 32.5433 40.6931 45.2526C40.6931 57.9618 43.0048 64.8935 47.6247 66.0476M26.8297 45.2526H68.4198M16.4322 79.9109H40.6931M54.5564 79.9109H78.8173" stroke="#4F085E" stroke-width="6" stroke-linecap="round" stroke-linejoin="round"/>
<path d="M47.6246 86.8426C51.4529 86.8426 54.5563 83.7392 54.5563 79.9109C54.5563 76.0827 51.4529 72.9792 47.6246 72.9792C43.7963 72.9792 40.6929 76.0827 40.6929 79.9109C40.6929 83.7392 43.7963 86.8426 47.6246 86.8426Z" stroke="#4F085E" stroke-width="6" stroke-linecap="round" stroke-linejoin="round"/>
<path d="M47.6246 66.0476V72.9793" stroke="#4F085E" stroke-width="6" stroke-linecap="round" stroke-linejoin="round"/>
</svg>
