<svg width="32" height="32" viewBox="0 0 32 32" fill="none" xmlns="http://www.w3.org/2000/svg">
<g clip-path="url(#clip0_2009_199)">
<path d="M16 32C24.8366 32 32 24.8366 32 16C32 7.16344 24.8366 0 16 0C7.16344 0 0 7.16344 0 16C0 24.8366 7.16344 32 16 32Z" fill="#4F085E"/>
<path d="M16.4733 14.2986C16.7034 14.0394 16.8879 13.7762 17.1284 13.5543C17.4696 13.2218 17.8735 12.9603 18.3166 12.7852C18.7597 12.6101 19.2331 12.5248 19.7095 12.5343C20.2584 12.5249 20.8061 12.5911 21.3369 12.7313C22.5518 13.0837 23.2566 13.9192 23.5946 15.105C23.8185 15.9937 23.9197 16.9089 23.8952 17.825C23.8952 19.7593 23.8952 21.6914 23.8952 23.6298C23.8952 23.8102 23.8454 23.8579 23.6671 23.8558C22.6693 23.8475 21.6735 23.8475 20.6797 23.8558C20.5035 23.8558 20.4724 23.804 20.4724 23.6485C20.4724 21.8089 20.4724 19.9693 20.4724 18.1298C20.4828 17.6677 20.4283 17.2064 20.3107 16.7594C20.0723 15.9302 19.4814 15.5155 18.6169 15.5591C17.4373 15.6213 16.8216 16.208 16.6723 17.4083C16.6357 17.6943 16.6177 17.9824 16.6184 18.2707C16.6184 20.0599 16.6184 21.849 16.6184 23.6381C16.6184 23.8164 16.5728 23.8682 16.3904 23.8662C15.3891 23.8662 14.3856 23.8662 13.3822 23.8662C13.2205 23.8662 13.1749 23.8247 13.1749 23.6588C13.1749 20.1179 13.1749 16.5763 13.1749 13.034C13.1749 12.8577 13.2309 12.8266 13.3968 12.8266C14.3504 12.8349 15.3034 12.8349 16.2556 12.8266C16.4298 12.8266 16.4754 12.8826 16.4629 13.0485C16.4671 13.4507 16.4733 13.8736 16.4733 14.2986Z" fill="#FEFEFE"/>
<path d="M11.0166 18.3454C11.0166 20.0972 11.0166 21.849 11.0166 23.6008C11.0166 23.7957 10.9689 23.8558 10.7678 23.8538C9.77065 23.8413 8.77555 23.8538 7.78043 23.8538C7.6208 23.8538 7.57312 23.8144 7.57312 23.6464C7.57312 20.0972 7.57312 16.5494 7.57312 13.0029C7.57312 12.8557 7.61044 12.7956 7.76592 12.8059C8.77554 12.8059 9.78517 12.8059 10.7948 12.8059C10.9897 12.8059 11.0145 12.8785 11.0145 13.0464C11.0132 14.8128 11.0139 16.5791 11.0166 18.3454Z" fill="#FEFEFE"/>
<path d="M11.2905 9.29211C11.2926 9.68594 11.1776 10.0715 10.9602 10.3999C10.7428 10.7283 10.4328 10.9847 10.0695 11.1367C9.70613 11.2886 9.30585 11.3293 8.9194 11.2534C8.53294 11.1775 8.17771 10.9886 7.89879 10.7105C7.61987 10.4325 7.42982 10.0779 7.35273 9.69164C7.27564 9.30542 7.31499 8.905 7.4658 8.54119C7.61661 8.17737 7.87208 7.86653 8.19979 7.64811C8.52751 7.42969 8.91271 7.31352 9.30654 7.31434C9.83082 7.31704 10.333 7.52609 10.7043 7.89623C11.0756 8.26638 11.2862 8.76784 11.2905 9.29211Z" fill="#FEFEFE"/>
</g>
<defs>
<clipPath id="clip0_2009_199">
<rect width="32" height="32" fill="white"/>
</clipPath>
</defs>
</svg>
