<svg width="32" height="32" viewBox="0 0 32 32" fill="none" xmlns="http://www.w3.org/2000/svg">
<path d="M16 32C24.8366 32 32 24.8366 32 16C32 7.16344 24.8366 0 16 0C7.16344 0 0 7.16344 0 16C0 24.8366 7.16344 32 16 32Z" fill="#4F085E"/>
<path d="M15.9979 13.4084C14.5709 13.4084 13.4064 14.5729 13.4064 15.9999C13.4064 17.427 14.5709 18.5915 15.9979 18.5915C17.4249 18.5915 18.5894 17.427 18.5894 15.9999C18.5894 14.5729 17.4249 13.4084 15.9979 13.4084ZM23.7706 15.9999C23.7706 14.9268 23.7803 13.8633 23.72 12.7921C23.6598 11.5478 23.3759 10.4435 22.4661 9.53363C21.5543 8.62182 20.4519 8.33991 19.2077 8.27964C18.1345 8.21937 17.0711 8.22909 15.9999 8.22909C14.9267 8.22909 13.8633 8.21937 12.792 8.27964C11.5478 8.33991 10.4435 8.62376 9.53367 9.53363C8.62187 10.4454 8.33997 11.5478 8.2797 12.7921C8.21943 13.8652 8.22915 14.9287 8.22915 15.9999C8.22915 17.0712 8.21943 18.1366 8.2797 19.2078C8.33997 20.4521 8.62381 21.5564 9.53367 22.4663C10.4455 23.3781 11.5478 23.66 12.792 23.7202C13.8652 23.7805 14.9286 23.7708 15.9999 23.7708C17.073 23.7708 18.1365 23.7805 19.2077 23.7202C20.4519 23.66 21.5562 23.3761 22.4661 22.4663C23.3779 21.5544 23.6598 20.4521 23.72 19.2078C23.7822 18.1366 23.7706 17.0731 23.7706 15.9999ZM15.9979 19.9874C13.7913 19.9874 12.0105 18.2066 12.0105 15.9999C12.0105 13.7933 13.7913 12.0125 15.9979 12.0125C18.2045 12.0125 19.9853 13.7933 19.9853 15.9999C19.9853 18.2066 18.2045 19.9874 15.9979 19.9874ZM20.1486 12.7804C19.6334 12.7804 19.2174 12.3643 19.2174 11.8491C19.2174 11.3339 19.6334 10.9179 20.1486 10.9179C20.6638 10.9179 21.0799 11.3339 21.0799 11.8491C21.08 11.9715 21.0561 12.0926 21.0093 12.2057C20.9626 12.3188 20.894 12.4215 20.8075 12.508C20.721 12.5945 20.6183 12.6631 20.5052 12.7098C20.3921 12.7566 20.271 12.7806 20.1486 12.7804Z" fill="white"/>
</svg>
