<svg width="820" height="584" viewBox="0 0 820 584" fill="none" xmlns="http://www.w3.org/2000/svg">
<mask id="mask0_1_229" style="mask-type:alpha" maskUnits="userSpaceOnUse" x="75" y="75" width="620" height="384">
<rect x="75" y="75.5" width="620" height="383" rx="16" fill="#BAFEF1"/>
</mask>
<g mask="url(#mask0_1_229)">
<g filter="url(#filter0_d_1_229)">
<rect x="75" y="75.5" width="620" height="383" rx="16" fill="#BAFEF1"/>
</g>
</g>
<g clip-path="url(#clip0_1_229)">
<path d="M282.01 33.8L280.71 76.3601L280.62 79.57L280.5 83.07L279.05 130.85L278.94 134.62L278.59 146.05L278.54 147.72L276.69 208.69L276.64 210.31L276.3 221.45L276.15 226.33L275.81 237.4L275.76 239.06L273.93 299.54L273.88 301.16L273.75 305.27L273.69 307.25L273.39 317L273.33 318.97L273.11 326.32L273.06 327.92L271.44 381.38L271.39 382.93L271.11 392.22L270.96 397.1L269.99 428.98L269.09 458.5H75V33.8H282.01Z" fill="#BAFEF1"/>
<path d="M269.99 428.98L269.09 458.5H75V428.98H269.99Z" fill="#A3ECDE"/>
<path d="M287.859 159L287.809 160.76L285.049 241.05L284.899 245.46L282.449 316.95L282.389 318.74L282.089 327.57L282.019 329.36L279.739 395.69L279.589 400.11L278.599 428.98H275.189L276.169 400.11L276.319 395.7V395.69L276.349 395L278.599 329.36L278.639 328.13L278.669 327.57V327.41L278.819 322.99L278.839 322.25L278.969 318.74L279.029 316.95L281.459 246.22L281.479 245.46L281.629 241.05L281.659 240.3L284.299 163.18L284.329 162.41H119.539L120.879 209.55L121.449 229.64L121.539 232.68L121.599 234.95L121.769 241.05L121.899 245.46L122.149 254.47L122.409 263.41L122.629 271.25L122.859 279.17L123.169 290.27L123.399 298.2L123.729 310.22L124.159 325.31L124.779 347.25L124.879 350.64L126.159 395.69L126.279 400.11L127.099 428.98H123.679L122.859 400.11L122.739 395.69L121.459 350.64L121.369 347.25L120.739 325.31L120.319 310.22L119.979 298.2L119.749 290.27L119.439 279.17L119.209 271.25L118.989 263.41L118.739 254.47L118.479 245.46L118.359 241.05L118.209 235.82L118.149 233.48L118.029 229.64L117.469 209.55L116.029 159H287.859Z" fill="#A3ECDE"/>
<path d="M286.1 241.04H115.98V245.46H286.1V241.04Z" fill="#A3ECDE"/>
<path d="M286.1 395.7H115.98V400.12H286.1V395.7Z" fill="#A3ECDE"/>
<path d="M246.83 160.75L246.79 162.41L239.63 428.98H236.21L243.37 162.41L243.42 160.66L246.83 160.75Z" fill="#A3ECDE"/>
<path d="M194.21 160.75L194.17 162.41L187.81 428.98H184.39L190.76 162.41L190.8 160.66L194.21 160.75Z" fill="#A3ECDE"/>
<path d="M194.545 162.007L193.796 162.84L281.252 241.475L282.001 240.643L194.545 162.007Z" fill="#A3ECDE"/>
<path d="M283.975 162.008L191.928 240.624L192.655 241.475L284.702 162.86L283.975 162.008Z" fill="#A3ECDE"/>
<path d="M192.557 245.04L191.811 245.875L278.453 323.396L279.199 322.562L192.557 245.04Z" fill="#A3ECDE"/>
<path d="M281.133 245.067L189.953 322.558L190.678 323.411L281.858 245.921L281.133 245.067Z" fill="#A3ECDE"/>
<path d="M190.688 326.951L189.991 327.829L275.989 396.112L276.686 395.235L190.688 326.951Z" fill="#A3ECDE"/>
<path d="M278.316 326.972L188.261 395.278L188.938 396.171L278.993 327.864L278.316 326.972Z" fill="#A3ECDE"/>
<path d="M138.18 189.95C141.615 189.95 144.4 187.165 144.4 183.73C144.4 180.295 141.615 177.51 138.18 177.51C134.745 177.51 131.96 180.295 131.96 183.73C131.96 187.165 134.745 189.95 138.18 189.95Z" fill="#FA51B6"/>
<path d="M132.68 182.98H143.68C144.131 182.98 144.563 183.159 144.882 183.478C145.201 183.797 145.38 184.229 145.38 184.68V186.68H131V184.68C131 184.233 131.176 183.803 131.491 183.485C131.805 183.167 132.233 182.985 132.68 182.98Z" fill="#3C0949"/>
<path d="M188.73 189.95C192.165 189.95 194.95 187.165 194.95 183.73C194.95 180.295 192.165 177.51 188.73 177.51C185.294 177.51 182.51 180.295 182.51 183.73C182.51 187.165 185.294 189.95 188.73 189.95Z" fill="#FA51B6"/>
<path d="M183.229 182.98H194.229C194.68 182.98 195.113 183.159 195.431 183.478C195.75 183.797 195.929 184.229 195.929 184.68V186.68H181.529V184.68C181.529 184.229 181.708 183.797 182.027 183.478C182.346 183.159 182.778 182.98 183.229 182.98Z" fill="#3C0949"/>
<path d="M228.319 190.69V318.97L214.449 341.13C214.193 341.55 213.833 341.896 213.404 342.136C212.975 342.376 212.491 342.502 211.999 342.5H140.659L158.179 314.5V186.67H224.309C224.837 186.669 225.36 186.772 225.848 186.974C226.335 187.175 226.778 187.471 227.151 187.845C227.524 188.219 227.819 188.663 228.02 189.151C228.22 189.639 228.322 190.162 228.319 190.69Z" fill="#64317A"/>
<path d="M221.55 239.05V314.5L204 342.5H157L171.71 319V239.05C171.71 237.989 172.131 236.972 172.882 236.222C173.632 235.472 174.649 235.05 175.71 235.05H217.5C218.029 235.043 218.555 235.142 219.046 235.34C219.537 235.538 219.984 235.832 220.361 236.204C220.738 236.576 221.037 237.019 221.241 237.508C221.445 237.996 221.55 238.521 221.55 239.05Z" fill="#4E0F5D"/>
<path d="M221.549 239.05V314.5L203.999 342.5H197.239L214.759 314.5V239.05C214.759 237.989 214.338 236.972 213.588 236.222C212.838 235.472 211.82 235.05 210.759 235.05H217.519C218.047 235.046 218.57 235.147 219.059 235.346C219.548 235.545 219.992 235.839 220.367 236.211C220.742 236.583 221.039 237.025 221.242 237.512C221.445 238 221.549 238.522 221.549 239.05Z" fill="black"/>
<path d="M158.18 314.5L140.66 342.47H71.5V186.67H158.18V314.5Z" fill="#7A5397"/>
<path d="M141.76 246.15H75.0701C74.3852 246.15 73.8301 246.705 73.8301 247.39V296.6C73.8301 297.285 74.3852 297.84 75.0701 297.84H141.76C142.445 297.84 143 297.285 143 296.6V247.39C143 246.705 142.445 246.15 141.76 246.15Z" fill="#4E0F5D"/>
<path d="M293.6 305.28H171.72V318.97H293.6V305.28Z" fill="#7A5397"/>
<path d="M293.6 305.28H171.72V307.25H293.6V305.28Z" fill="#3C0949"/>
<path d="M293.6 317H171.72V318.97H293.6V317Z" fill="#3C0949"/>
<path d="M180.489 317C183.185 317 185.369 314.815 185.369 312.12C185.369 309.425 183.185 307.24 180.489 307.24C177.794 307.24 175.609 309.425 175.609 312.12C175.609 314.815 177.794 317 180.489 317Z" fill="#64317A"/>
<path d="M200.71 317C203.405 317 205.59 314.815 205.59 312.12C205.59 309.425 203.405 307.24 200.71 307.24C198.015 307.24 195.83 309.425 195.83 312.12C195.83 314.815 198.015 317 200.71 317Z" fill="#64317A"/>
<path d="M220.92 317C223.615 317 225.8 314.815 225.8 312.12C225.8 309.425 223.615 307.24 220.92 307.24C218.225 307.24 216.04 309.425 216.04 312.12C216.04 314.815 218.225 317 220.92 317Z" fill="#64317A"/>
<path d="M241.14 317C243.835 317 246.02 314.815 246.02 312.12C246.02 309.425 243.835 307.24 241.14 307.24C238.444 307.24 236.26 309.425 236.26 312.12C236.26 314.815 238.444 317 241.14 317Z" fill="#64317A"/>
<path d="M261.36 317C264.055 317 266.24 314.815 266.24 312.12C266.24 309.425 264.055 307.24 261.36 307.24C258.664 307.24 256.48 309.425 256.48 312.12C256.48 314.815 258.664 317 261.36 317Z" fill="#64317A"/>
<path d="M281.579 317C284.274 317 286.459 314.815 286.459 312.12C286.459 309.425 284.274 307.24 281.579 307.24C278.884 307.24 276.699 309.425 276.699 312.12C276.699 314.815 278.884 317 281.579 317Z" fill="#64317A"/>
<path d="M88.79 208.85H72.74C72.0552 208.85 71.5 209.405 71.5 210.09V235.04C71.5 235.725 72.0552 236.28 72.74 236.28H88.79C89.4748 236.28 90.03 235.725 90.03 235.04V210.09C90.03 209.405 89.4748 208.85 88.79 208.85Z" fill="#C7C9FD"/>
<path d="M139.43 208.85H99.2897C98.6048 208.85 98.0497 209.405 98.0497 210.09V235.04C98.0497 235.725 98.6048 236.28 99.2897 236.28H139.43C140.114 236.28 140.67 235.725 140.67 235.04V210.09C140.67 209.405 140.114 208.85 139.43 208.85Z" fill="#C7C9FD"/>
<path d="M220.21 199.66H173.06C172.32 199.66 171.72 200.26 171.72 201V225.75C171.72 226.49 172.32 227.09 173.06 227.09H220.21C220.95 227.09 221.55 226.49 221.55 225.75V201C221.55 200.26 220.95 199.66 220.21 199.66Z" fill="#C7C9FD"/>
<path d="M221.549 201V225.74C221.549 226.096 221.408 226.438 221.157 226.691C220.906 226.944 220.566 227.088 220.209 227.09H218.319C218.668 227.088 219.001 226.947 219.246 226.7C219.492 226.453 219.629 226.119 219.629 225.77V202.1C219.629 201.753 219.491 201.42 219.246 201.174C219 200.928 218.667 200.79 218.319 200.79H171.739C171.789 200.476 171.949 200.189 172.191 199.982C172.433 199.775 172.741 199.661 173.059 199.66H220.209C220.385 199.66 220.559 199.695 220.722 199.762C220.885 199.829 221.032 199.928 221.157 200.053C221.281 200.177 221.38 200.325 221.447 200.487C221.515 200.65 221.549 200.824 221.549 201Z" fill="black"/>
<path d="M139.43 246.15H72.74C72.0552 246.15 71.5 246.705 71.5 247.39V296.6C71.5 297.285 72.0552 297.84 72.74 297.84H139.43C140.115 297.84 140.67 297.285 140.67 296.6V247.39C140.67 246.705 140.115 246.15 139.43 246.15Z" fill="#64317A"/>
<path d="M148.229 348.75H133.199V428.99H148.229V348.75Z" fill="#7A5397"/>
<path d="M206.439 348.75H191.409V428.98H206.439V348.75Z" fill="#7A5397"/>
<path d="M206.439 348.75V356.29L191.409 358.19V348.75H206.439Z" fill="black"/>
<path d="M130.29 342.5H151.15V351.04C151.15 351.793 150.851 352.516 150.318 353.048C149.786 353.581 149.063 353.88 148.31 353.88H133.13C132.377 353.88 131.654 353.581 131.122 353.048C130.589 352.516 130.29 351.793 130.29 351.04V342.5Z" fill="#3C0949"/>
<path d="M209.349 342.5V351.04C209.349 351.794 209.05 352.518 208.518 353.052C207.986 353.586 207.263 353.887 206.509 353.89H191.339C190.584 353.888 189.861 353.586 189.327 353.052C188.793 352.519 188.492 351.795 188.489 351.04V342.5H209.349Z" fill="#3C0949"/>
<path d="M209.349 342.47V343.85L188.489 346.5V342.47H209.349Z" fill="black"/>
<path d="M136.78 220.15C136.589 220.153 136.4 220.114 136.227 220.034C136.054 219.954 135.901 219.837 135.78 219.69C133.15 216.39 126.53 214.17 119.32 214.17C112.11 214.17 105.51 216.39 102.87 219.69C102.647 219.868 102.369 219.965 102.084 219.962C101.799 219.96 101.523 219.859 101.303 219.677C101.083 219.495 100.933 219.242 100.878 218.962C100.823 218.683 100.866 218.392 101 218.14C104.13 214.22 111.35 211.69 119.39 211.69C127.43 211.69 134.66 214.22 137.79 218.14C137.995 218.396 138.09 218.723 138.054 219.049C138.018 219.375 137.855 219.674 137.6 219.88C137.366 220.063 137.076 220.159 136.78 220.15Z" fill="#3C0949"/>
<path d="M121.169 230.5C120.947 230.739 120.641 230.885 120.316 230.907C119.99 230.93 119.667 230.829 119.414 230.623C119.16 230.417 118.993 230.123 118.948 229.8C118.903 229.476 118.982 229.148 119.169 228.88L119.369 228.68L127.559 220.59L121.339 230.27L121.169 230.5Z" fill="#FA51B6"/>
<path d="M75.0001 263.56C77.4191 263.56 79.3801 261.599 79.3801 259.18C79.3801 256.761 77.4191 254.8 75.0001 254.8C72.5811 254.8 70.6201 256.761 70.6201 259.18C70.6201 261.599 72.5811 263.56 75.0001 263.56Z" fill="#FA51B6"/>
<path d="M90.0196 263.56C92.4387 263.56 94.3996 261.599 94.3996 259.18C94.3996 256.761 92.4387 254.8 90.0196 254.8C87.6006 254.8 85.6396 256.761 85.6396 259.18C85.6396 261.599 87.6006 263.56 90.0196 263.56Z" fill="#FA51B6"/>
<path d="M126.2 254.8H106.31C103.891 254.8 101.93 256.759 101.93 259.175C101.93 261.591 103.891 263.55 106.31 263.55H126.2C128.619 263.55 130.58 261.591 130.58 259.175C130.58 256.759 128.619 254.8 126.2 254.8Z" fill="#C7C9FD"/>
<path d="M126.2 275.81H106.31C103.891 275.81 101.93 277.769 101.93 280.185C101.93 282.601 103.891 284.56 106.31 284.56H126.2C128.619 284.56 130.58 282.601 130.58 280.185C130.58 277.769 128.619 275.81 126.2 275.81Z" fill="#C7C9FD"/>
<path d="M91.85 270.99H68.3C66.8917 270.99 65.75 272.132 65.75 273.54V286.82C65.75 288.228 66.8917 289.37 68.3 289.37H91.85C93.2583 289.37 94.4 288.228 94.4 286.82V273.54C94.4 272.132 93.2583 270.99 91.85 270.99Z" fill="#C7C9FD"/>
<path d="M158.18 314.5H71.5V342.47H140.66L158.18 314.5Z" fill="#4E0F5D"/>
<path d="M228.32 284.56C228.317 285.962 228.217 287.362 228.02 288.75C227.103 294.665 224.894 300.305 221.55 305.27H199.87V267.93H225C225 267.93 227.11 271.24 228 278.29C228.237 280.371 228.344 282.465 228.32 284.56Z" fill="#FA51B6"/>
<path d="M206.439 284.56C206.439 294.75 201.009 303.3 199.869 304.98L199.669 305.27H198.129C198.129 305.27 191.359 295.94 191.359 284.56C191.359 273.18 194.719 267.93 194.719 267.93H203.079C203.079 267.93 206.439 273.18 206.439 284.56Z" fill="#BB3996"/>
<path d="M226.42 261.41L223.71 263.36L220.99 261.41L218.28 263.36L215.57 261.41L212.86 263.36L210.15 261.41L207.44 263.36L204.73 261.41L202.02 263.36L199.31 261.41L196.6 263.36L193.89 261.41L194.72 267.93H224.96L226.42 261.41Z" fill="#BB3996"/>
<path d="M274.149 284.56C274.146 285.962 274.046 287.362 273.849 288.75C272.932 294.665 270.723 300.305 267.379 305.27H245.699V267.93H270.799C270.799 267.93 272.909 271.24 273.799 278.29C274.046 280.371 274.163 282.465 274.149 284.56Z" fill="#FA51B6"/>
<path d="M252.27 284.56C252.27 294.75 246.84 303.3 245.71 304.98C245.58 305.17 245.5 305.27 245.5 305.27H244C244 305.27 237.23 295.94 237.23 284.56C237.23 273.18 240.59 267.93 240.59 267.93H248.95C248.95 267.93 252.27 273.18 252.27 284.56Z" fill="#BB3996"/>
<path d="M272.26 261.41L269.54 263.36L266.83 261.41L264.11 263.36L261.4 261.41L258.69 263.36L255.98 261.41L253.27 263.36L250.56 261.41L247.85 263.36L245.14 261.41L242.43 263.36L239.72 261.41L240.55 267.93H270.8L272.26 261.41Z" fill="#BB3996"/>
<path d="M88.6701 33.5601H77.8701V122.37H88.6701V33.5601Z" fill="#A3ECDE"/>
<path d="M154.61 33.5601H143.81V122.37H154.61V33.5601Z" fill="#A3ECDE"/>
<path d="M220.55 33.5601H209.75V122.37H220.55V33.5601Z" fill="#A3ECDE"/>
<path d="M286.49 33.5601H275.69V122.37H286.49V33.5601Z" fill="#A3ECDE"/>
<path d="M283.56 115.66H-48.6104V118.87H283.56V115.66Z" fill="#A3ECDE"/>
<path d="M77.4018 49.1751L22.2498 115.253L23.2018 116.048L78.3537 49.9697L77.4018 49.1751Z" fill="#A3ECDE"/>
<path d="M23.1981 49.1762L22.246 49.9706L77.3864 116.058L78.3385 115.264L23.1981 49.1762Z" fill="#A3ECDE"/>
<path d="M143.338 49.189L88.1865 115.267L89.1384 116.062L144.29 49.9836L143.338 49.189Z" fill="#A3ECDE"/>
<path d="M89.1493 49.1719L88.1972 49.9663L143.338 116.054L144.29 115.26L89.1493 49.1719Z" fill="#A3ECDE"/>
<path d="M209.282 49.1852L154.13 115.263L155.082 116.058L210.234 49.9798L209.282 49.1852Z" fill="#A3ECDE"/>
<path d="M155.091 49.1778L154.139 49.9722L209.279 116.06L210.231 115.265L155.091 49.1778Z" fill="#A3ECDE"/>
<path d="M275.224 49.1915L220.072 115.27L221.024 116.064L276.176 49.986L275.224 49.1915Z" fill="#A3ECDE"/>
<path d="M221.031 49.1836L220.079 49.978L275.219 116.066L276.172 115.271L221.031 49.1836Z" fill="#A3ECDE"/>
<path d="M175.9 428.98H48.04V338.73H186.84L175.9 428.98Z" fill="#9B85C3"/>
<path d="M130.43 338.73L136.92 428.98H182.85L186.84 338.73H130.43Z" fill="#9074B4"/>
<path d="M151.399 352.4V392.52H169.859L172.819 352.4H151.399Z" fill="#C7C9FD"/>
<path d="M228.319 284.56C228.316 285.962 228.216 287.362 228.019 288.75H216.019C215.56 288.75 215.106 288.659 214.681 288.483C214.257 288.307 213.872 288.049 213.548 287.724C213.224 287.399 212.967 287.013 212.792 286.589C212.617 286.164 212.528 285.709 212.529 285.25V281.79C212.528 281.331 212.617 280.876 212.792 280.451C212.967 280.027 213.224 279.641 213.548 279.316C213.872 278.991 214.257 278.733 214.681 278.557C215.106 278.381 215.56 278.29 216.019 278.29H227.999C228.236 280.371 228.343 282.465 228.319 284.56Z" fill="#BB3996"/>
<path d="M274.15 284.56C274.147 285.962 274.047 287.362 273.85 288.75H262.44C261.511 288.75 260.621 288.381 259.965 287.725C259.308 287.069 258.94 286.178 258.94 285.25V281.79C258.94 280.862 259.308 279.972 259.965 279.315C260.621 278.659 261.511 278.29 262.44 278.29H273.78C274.033 280.37 274.156 282.464 274.15 284.56Z" fill="#BB3996"/>
<path d="M125.94 48.4701H123.54V115.48H125.94V48.4701Z" fill="#4E0F5D"/>
<path d="M147.77 129.45H18.7697L20.9597 123.11H25.0997L33.1797 106.09H133.36L141.44 123.11H145.59L147.77 129.45Z" fill="#BB3996"/>
<path d="M147.77 129.45H116.12L113.94 123.11H109.79L101.71 106.09H133.36L141.44 123.11H145.59L147.77 129.45Z" fill="#64317A"/>
<path d="M159.95 106.23L154.93 111.09L153.66 112.32L114.64 74.77L119.6 69.96L123.65 66.04L159.95 106.23Z" fill="#C7C9FD"/>
<path d="M154.93 111.09L153.66 112.32L114.64 74.7701L119.6 69.9601L154.93 111.09Z" fill="#9B85C3"/>
<path d="M117.739 76.9701C122.732 76.9701 126.779 72.9228 126.779 67.9301C126.779 62.9375 122.732 58.8901 117.739 58.8901C112.747 58.8901 108.699 62.9375 108.699 67.9301C108.699 72.9228 112.747 76.9701 117.739 76.9701Z" fill="#64317A"/>
<path d="M157.02 127.79C161.449 127.79 165.04 124.199 165.04 119.77C165.04 115.341 161.449 111.75 157.02 111.75C152.591 111.75 149 115.341 149 119.77C149 124.199 152.591 127.79 157.02 127.79Z" fill="#64317A"/>
<path d="M157.019 114.17C159.571 114.17 161.639 112.102 161.639 109.55C161.639 106.998 159.571 104.93 157.019 104.93C154.468 104.93 152.399 106.998 152.399 109.55C152.399 112.102 154.468 114.17 157.019 114.17Z" fill="#4E0F5D"/>
<path d="M157.019 131.28L148.999 145.64L151.259 159.43L142.279 143.24L153.549 129.41H157.019V131.28Z" fill="#C7C9FD"/>
<path d="M157.02 131.28L165.04 145.64L162.79 159.43L171.76 143.24L160.49 129.41H157.02V131.28Z" fill="#C7C9FD"/>
<path d="M157.019 131.27C159.317 131.27 161.179 129.408 161.179 127.11C161.179 124.813 159.317 122.95 157.019 122.95C154.722 122.95 152.859 124.813 152.859 127.11C152.859 129.408 154.722 131.27 157.019 131.27Z" fill="#B1A7E0"/>
<path d="M694.999 33.8V458.5H500.899L499.999 428.98L487.989 33.8H694.999Z" fill="#E3FD83"/>
<path d="M757.719 16.8401H547.649V305.53H757.719V16.8401Z" fill="#F2FEC7"/>
<path d="M729.489 141.83V305.53H609.359V135.77H651.369V207.88H666.479V110.23H708.489V141.83H729.489Z" fill="#E3FD83"/>
<path opacity="0.5" d="M724.859 16.8401L547.649 194.05V151.41L682.229 16.8401H724.859Z" fill="white"/>
<path opacity="0.5" d="M622.439 16.8401L547.649 91.6301V16.8401H622.439Z" fill="white"/>
<path opacity="0.5" d="M757.719 31.6301V167.8L619.989 305.53H547.649V241.7L757.719 31.6301Z" fill="white"/>
<path opacity="0.5" d="M757.719 215.46V275.49L727.679 305.53H667.649L757.719 215.46Z" fill="white"/>
<path d="M617.669 16.8401H547.649V305.53H617.669V16.8401Z" stroke="#B8D53E" stroke-width="1.24" stroke-miterlimit="10"/>
<path d="M687.7 16.8401H617.68V305.53H687.7V16.8401Z" stroke="#B8D53E" stroke-width="1.24" stroke-miterlimit="10"/>
<path d="M757.719 16.8401H687.699V305.53H757.719V16.8401Z" stroke="#B8D53E" stroke-width="1.24" stroke-miterlimit="10"/>
<path d="M757.719 16.8401H547.649V113.07H757.719V16.8401Z" stroke="#B8D53E" stroke-width="1.24" stroke-miterlimit="10"/>
<path d="M757.719 113.07H547.649V209.3H757.719V113.07Z" stroke="#B8D53E" stroke-width="1.24" stroke-miterlimit="10"/>
<path d="M757.719 209.3H547.649V305.53H757.719V209.3Z" stroke="#B8D53E" stroke-width="1.24" stroke-miterlimit="10"/>
<path d="M503.059 397.32C503.059 397.32 493.229 394.02 493.429 387.62C493.629 381.22 496.929 381.09 496.929 381.09C494.541 380.351 492.454 378.865 490.974 376.851C489.494 374.836 488.7 372.4 488.709 369.9C488.709 369.9 479.949 363.17 482.239 360.34C484.529 357.51 494.569 365.73 498.609 368.34C502.649 370.95 524.819 388.01 524.819 388.01V397.3L503.059 397.32Z" fill="#BCD946"/>
<path d="M516.64 385.33C515.091 383.891 514.067 381.977 513.73 379.89C513.393 377.803 513.762 375.663 514.78 373.81C518.22 366.74 517.3 362.29 515.13 358.25C512.96 354.21 514.38 351.38 520.24 349.56C526.1 347.74 524.24 346.93 522.87 339.46C521.5 331.99 531.56 330.56 533.58 339.46C535.6 348.36 522.26 390.79 522.26 390.79L516.64 385.33Z" fill="#AECC2F"/>
<path d="M512.15 398C512.15 398 512.22 378.73 509.26 375C506.3 371.27 487.09 345.6 483.93 341.5C480.77 337.4 489.79 334.5 492.15 343.01C494.51 351.52 495.79 350.76 500.9 351.5C506.01 352.24 505.49 355.88 506.16 358.84C506.83 361.8 508.58 363.35 513.7 363.29C518.82 363.23 521.11 366.29 520.37 371.71C519.63 377.13 521.45 382.62 527.31 383.83C533.17 385.04 531.08 390.83 528.73 393.13C528.055 393.733 527.594 394.538 527.414 395.424C527.233 396.311 527.344 397.232 527.73 398.05L512.15 398Z" fill="#C6E255"/>
<path d="M495.18 395.03H529.18V412.03C529.18 416.539 527.389 420.863 524.2 424.051C521.012 427.239 516.688 429.03 512.18 429.03C507.671 429.03 503.347 427.239 500.159 424.051C496.971 420.863 495.18 416.539 495.18 412.03V395.03Z" fill="#AECC2F"/>
<path d="M533.79 100.32C536.692 100.32 539.566 100.892 542.247 102.002C544.928 103.113 547.365 104.741 549.417 106.793C551.469 108.845 553.097 111.281 554.207 113.963C555.318 116.644 555.89 119.518 555.89 122.42V130.08H511.69V122.42C511.69 116.559 514.018 110.938 518.163 106.793C522.307 102.648 527.928 100.32 533.79 100.32Z" fill="#AECC2F"/>
<path d="M536.19 33.8H531.38V118.27H536.19V33.8Z" fill="#AECC2F"/>
<path d="M512.51 278.29L491.79 428.98H498.79L527.81 278.29H512.51Z" fill="#6D1B6D"/>
<path d="M664.029 323.71L678.499 428.98H674.179L655.359 331.26L664.029 323.71Z" fill="#4E0F5D"/>
<path d="M689.6 278.29L710.31 428.98H703.31L674.29 278.29H689.6Z" fill="#4E0F5D"/>
<path d="M682.739 271.87H637.409V188.57H671.999C681.479 188.57 690.089 192.22 690.669 204.83C691.249 217.44 682.999 257.14 682.739 271.87Z" fill="#7A5397"/>
<path d="M682.74 271.87H674.29C674.29 271.87 685.22 213.37 684.81 201.26C684.4 189.15 671.22 188.57 671.22 188.57H672C681.48 188.57 690.09 192.22 690.67 204.83C691.25 217.44 683 257.14 682.74 271.87Z" fill="#64317A"/>
<path d="M628.259 161.14C628.259 161.14 627.159 157.21 619.789 158.66C612.419 160.11 604.839 168.66 605.429 175.59C606.019 182.52 608.999 186.38 609.149 191.78C609.299 197.18 605.789 202.5 604.149 204.84C607.653 203.484 610.852 201.445 613.559 198.84C613.322 200.804 612.729 202.708 611.809 204.46L640.479 199.94C641.546 197.269 641.546 194.291 640.479 191.62C640.479 191.62 644.779 196 645.289 198.84C645.289 198.84 645.579 193.52 643.389 190.16C641.199 186.8 641.569 183.6 643.319 180.1C645.069 176.6 647.109 167.92 639.669 162.1C632.229 156.28 628.259 161.14 628.259 161.14Z" fill="#3C0949"/>
<path d="M635.999 199.5C634.489 206.82 627.669 217.77 621.999 217.77C616.549 217.77 618.729 201.7 618.919 200.35C618.921 200.32 618.921 200.29 618.919 200.26C620.669 200.26 620.439 197.33 620.439 197.33V197.24C620.563 195.054 621.312 192.949 622.597 191.176C623.882 189.404 625.65 188.037 627.689 187.24C629.007 186.72 630.412 186.455 631.829 186.46C631.899 196.97 635.999 199.5 635.999 199.5Z" fill="#F9BCA7"/>
<path d="M630.749 189.3C630.749 189.3 630.869 200.93 618.869 200.3C618.871 200.27 618.871 200.24 618.869 200.21C620.619 200.21 620.389 197.28 620.389 197.28V197.19C620.513 195.004 621.262 192.899 622.547 191.126C623.832 189.354 625.6 187.987 627.639 187.19L630.749 189.3Z" fill="black"/>
<path d="M611.22 176.5C610.541 180.411 610.541 184.409 611.22 188.32C612.42 194.01 615.01 197.38 621.41 197.38C628.91 197.38 631.75 186.44 631.75 186.44C632.647 186.103 633.457 185.568 634.12 184.876C634.783 184.184 635.282 183.351 635.58 182.44C636.58 179.32 635.42 176.31 632.74 177.19C630.06 178.07 630.1 181 628 178.5C627.085 177.386 626.445 176.072 626.132 174.665C625.82 173.258 625.843 171.797 626.2 170.4C626.2 170.4 617.84 179.32 611.22 176.5Z" fill="#F9BCA7"/>
<path d="M613.74 183.72C614.281 183.72 614.72 183.058 614.72 182.24C614.72 181.423 614.281 180.76 613.74 180.76C613.198 180.76 612.76 181.423 612.76 182.24C612.76 183.058 613.198 183.72 613.74 183.72Z" fill="black"/>
<path d="M620.469 183.07C621.01 183.07 621.449 182.407 621.449 181.59C621.449 180.773 621.01 180.11 620.469 180.11C619.928 180.11 619.489 180.773 619.489 181.59C619.489 182.407 619.928 183.07 620.469 183.07Z" fill="black"/>
<path d="M616.38 182.77C616.38 182.77 615.56 185.97 615.45 186.77C615.402 186.964 615.421 187.169 615.504 187.351C615.588 187.533 615.731 187.68 615.91 187.77" stroke="black" stroke-width="0.62" stroke-linecap="round" stroke-linejoin="round"/>
<path d="M609.249 267.06C609.799 261.01 607.179 247.61 607.179 247.61L603.899 251.5L596.219 260.7H581.069C581.069 260.7 597.879 223.84 601.069 217.28C604.259 210.72 610.739 205.28 610.739 205.28C615.239 199.28 618.899 200.28 618.899 200.28C618.899 200.28 616.279 217.79 621.969 217.79C627.659 217.79 634.459 206.88 635.969 199.55C640.259 198.12 642.729 200.31 642.729 200.31C647.073 200.907 651.226 202.476 654.879 204.9L659.489 223.5L670.309 267.13L609.249 267.06Z" fill="#ABF2E4"/>
<path d="M670.309 267.06H638.159V253.61C638.159 253.61 643.929 252.37 646.709 249.75C649.489 247.13 652.999 242.4 651.999 238.9C650.999 235.4 647.939 223.43 647.939 223.43H659.529L670.309 267.06Z" fill="black"/>
<path d="M642.33 267.06H620C620 267.06 613 246.06 611.22 231.64C609.96 221.33 612.29 211.28 615.22 205.27C616.044 203.355 617.284 201.647 618.85 200.27C618.85 200.27 616.23 217.78 621.92 217.78C627.61 217.78 634.41 206.87 635.92 199.54C635.83 200.05 634.92 205.43 634.13 212.54C633.67 216.68 633.26 221.4 633.13 226.09C632.7 239.19 642.33 267.06 642.33 267.06Z" fill="#EA4BAE"/>
<path d="M607.18 247.61L603.9 251.5C602.694 248.116 601.852 244.613 601.39 241.05C600.365 234.277 601.825 227.361 605.5 221.58C605.884 224.424 605.508 227.319 604.41 229.97C602.58 233.91 602.22 238.87 604.41 242.15C605.592 243.827 606.525 245.666 607.18 247.61Z" fill="black"/>
<path d="M596.219 260.73C596.759 254.825 596.078 248.871 594.219 243.24C594.332 241.176 594.238 239.106 593.939 237.06C593.449 234.32 592.939 232.17 588.309 233.06C583.679 233.95 578.679 239.17 577.579 242.45C576.479 245.73 576.819 250.11 577.579 250.65C577.579 250.65 576.219 253.41 577.419 260.76L596.219 260.73Z" stroke="black" stroke-width="0.62" stroke-miterlimit="10"/>
<path d="M590.319 234.32C590.42 235.044 590.253 235.78 589.849 236.39C586.609 241.28 582.989 242.06 581.189 242.11C581.047 242.111 580.907 242.082 580.777 242.024C580.647 241.967 580.531 241.882 580.436 241.776C580.341 241.67 580.27 241.545 580.228 241.41C580.185 241.274 580.172 241.131 580.189 240.99C581.089 232.99 581.099 224.61 581.099 224.61C577.379 223.95 576.639 218.61 576.639 218.61C574.489 217.12 575.639 215.87 575.639 215.87C574.929 215.1 575.879 214.02 575.879 214.02C575.879 214.02 575.529 213.44 576.279 212.36C577.429 210.761 578.834 209.362 580.439 208.22C582.119 207.22 584.189 208.69 584.189 208.69C586.189 209.93 590.799 216.79 590.799 216.79C590.738 219.154 590.158 221.476 589.099 223.59C589.099 224.88 589.339 226.68 589.559 228.49C589.809 230.79 590.149 233.09 590.319 234.32Z" fill="#F9BCA7"/>
<path d="M589.53 228.5L585.81 225C586.975 224.744 588.082 224.269 589.07 223.6C589.12 224.89 589.31 226.69 589.53 228.5Z" fill="black"/>
<path d="M583.289 213.19C583.289 213.19 577.849 213.39 576.609 218.62" stroke="black" stroke-width="0.62" stroke-miterlimit="10"/>
<path d="M575.609 215.88C575.609 215.88 577.819 210.88 582.279 210.88" stroke="black" stroke-width="0.62" stroke-miterlimit="10"/>
<path d="M590.5 219.42H586.58C585.812 219.421 585.068 219.158 584.471 218.676C583.874 218.194 583.46 217.521 583.3 216.77L581.3 207.47C581.252 207.249 581.254 207.021 581.307 206.801C581.359 206.581 581.46 206.376 581.602 206.201C581.744 206.025 581.923 205.884 582.127 205.787C582.331 205.69 582.554 205.64 582.78 205.64H594.34C594.567 205.641 594.791 205.694 594.995 205.794C595.2 205.894 595.379 206.039 595.519 206.218C595.659 206.397 595.757 206.605 595.806 206.827C595.855 207.049 595.853 207.279 595.8 207.5L593.8 216.8C593.633 217.549 593.214 218.217 592.613 218.694C592.013 219.171 591.267 219.427 590.5 219.42Z" fill="#FA51B6"/>
<path d="M676.33 267.06H648.75C648.75 267.06 645.47 254.73 648.75 250.13C649.705 248.815 651.017 247.801 652.53 247.208C654.043 246.614 655.695 246.466 657.29 246.78C656.735 241.803 655.023 237.026 652.29 232.83C647.92 226.61 638.07 198.48 654.92 204.83C654.92 204.83 662.92 208.23 668.16 218.41C673.4 228.59 681.95 249.58 683.91 254.95C684.193 255.715 684.417 256.501 684.58 257.3C685.51 262.1 684 267.06 676.33 267.06Z" fill="#ABF2E4"/>
<path d="M657.29 246.78C659.009 247.207 660.496 248.282 661.44 249.78" stroke="black" stroke-width="0.62" stroke-miterlimit="10"/>
<path d="M657.18 245.9C657.18 245.9 659.91 239.9 673.18 245.26" stroke="black" stroke-width="0.62" stroke-miterlimit="10"/>
<path d="M621.25 252.85C620.53 252.627 619.772 252.556 619.023 252.64C618.275 252.724 617.552 252.963 616.9 253.34C615.202 254.187 613.589 255.191 612.08 256.34C611.22 257.22 609.8 259.34 610.96 259.34C612.12 259.34 612.42 258.44 613.31 257.93C615.928 257.528 618.498 256.858 620.98 255.93C623.5 254.84 621.25 252.85 621.25 252.85Z" fill="black"/>
<path d="M614.51 257.42C614.51 257.42 620.58 257.9 622.82 259.92H628.51V255.11L620.25 254.67L614.51 257.42Z" fill="black"/>
<path d="M649.339 251.01C649.64 250.932 649.954 250.924 650.258 250.989C650.562 251.053 650.846 251.187 651.089 251.38C652.169 252.223 653.038 253.305 653.63 254.54C654.222 255.775 654.519 257.131 654.499 258.5C654.439 263.86 653.079 265.94 650.229 265.4C647.379 264.86 632.399 262 631.679 261.84C630.959 261.68 627.049 262.79 624.749 262.2C623.288 261.815 621.87 261.278 620.519 260.6C619.829 260.31 620.269 258.7 621.839 258.74C622.958 258.753 624.076 258.703 625.189 258.59C625.189 258.59 622.189 257.28 620.189 256.48C618.452 257.162 616.633 257.616 614.779 257.83C612.629 257.9 611.239 257.28 613.059 256.41C614.879 255.54 619.149 252.69 621.119 252.28C623.089 251.87 628.999 253.5 631.499 253.96C633.999 254.42 639.499 253.45 640.869 253.12C641.999 252.86 647.229 251.55 649.339 251.01Z" fill="#F9BCA7"/>
<path d="M610.719 205.27C608.895 209.193 607.839 213.429 607.609 217.75" stroke="black" stroke-width="0.62" stroke-miterlimit="10"/>
<path d="M642.73 200.24C638.185 212.258 636.5 225.169 637.81 237.95" stroke="black" stroke-width="0.62" stroke-miterlimit="10"/>
<path d="M638.909 243.04C639.663 246.381 640.594 249.679 641.699 252.92" stroke="black" stroke-width="0.62" stroke-miterlimit="10"/>
<path d="M586.67 278.29H676.54V305.91C676.54 313.867 673.379 321.497 667.753 327.123C662.127 332.749 654.496 335.91 646.54 335.91H586.67V278.29Z" fill="#64317A"/>
<path d="M636 199.5C635.91 200.01 635 205.39 634.21 212.5C630.5 218.73 625.64 223.96 621.33 222.66C615.33 220.84 614.93 211.11 615.33 205.26C616.154 203.345 617.394 201.637 618.96 200.26C618.96 200.26 616.34 217.77 622.03 217.77C627.72 217.77 634.44 206.84 636 199.5Z" fill="#CB3F9E"/>
<path d="M618.94 191.87C620.357 191.362 621.606 190.473 622.55 189.3" stroke="black" stroke-width="0.62" stroke-linecap="round" stroke-linejoin="round"/>
<path d="M667.35 297.62C666.91 303.09 661.45 304.62 661.45 304.62C661.45 304.62 647.66 292.62 634.75 289.3C632.354 288.71 629.927 288.256 627.48 287.94C625.01 287.61 622.55 287.4 620.19 287.26C615.143 286.984 610.084 287.007 605.04 287.33C605.09 281.42 607.61 278.33 607.61 278.33H666C663.19 288.94 667.79 292.15 667.35 297.62Z" fill="#ABF2E4"/>
<path d="M644.81 282.5C644.81 282.5 661.21 282.09 665.81 289.74" stroke="black" stroke-width="0.62" stroke-miterlimit="10"/>
<path d="M639.8 278.29C639.051 278.728 638.247 279.064 637.41 279.29C632.73 280.55 629.71 284.73 627.48 287.97C625.01 287.64 622.55 287.43 620.19 287.29C619.788 286.031 619.643 284.705 619.764 283.389C619.884 282.073 620.267 280.795 620.89 279.63C621.089 279.21 621.247 278.771 621.36 278.32L639.8 278.29Z" fill="#EA4BAE"/>
<path d="M628.26 287.33V320.81C628.26 320.81 599.08 325.41 594.05 337.22C591.8 342.49 588.93 356.49 586.43 370.37C583.33 387.62 580.81 404.7 580.81 404.7H563.86C563.86 404.7 556.63 312.7 568.45 302.43C579.57 292.75 602.18 287.91 604.79 287.38H605.04L607.75 286.06C610.778 284.579 614.223 284.18 617.51 284.93L628.26 287.33Z" fill="#BB3996"/>
<path d="M628.259 292.4V320.81C628.259 320.81 599.079 325.41 594.049 337.22C591.799 342.49 588.929 356.49 586.429 370.37C584.289 349.82 580.729 324.93 586.669 320.3C594.909 313.89 622.169 292.4 622.169 292.4H628.259Z" fill="black"/>
<path d="M628.259 287.33C628.259 287.33 612.719 300.17 606.999 305.42C601.279 310.67 599.119 319.72 604.229 337.42C609.339 355.12 623.229 404.75 623.229 404.75H641.669L633.379 330.42C633.379 330.42 650.079 331.88 657.299 325.42C664.519 318.96 661.449 304.63 661.449 304.63C661.449 300.046 659.629 295.65 656.389 292.408C653.148 289.166 648.753 287.343 644.169 287.34L628.259 287.33Z" fill="#FA51B6"/>
<path d="M579.39 406.59L578.07 419.17H566.26L565.44 406.59H579.39Z" fill="#F9BCA7"/>
<path d="M565.6 413.94C566.279 413.752 566.994 413.734 567.682 413.89C568.369 414.045 569.007 414.368 569.54 414.83C571.73 416.44 576.01 419.01 578.54 417.51C578.54 417.51 581.18 423.73 579.43 428.98H549.6C549.228 428.981 548.863 428.874 548.55 428.674C548.236 428.473 547.987 428.186 547.832 427.848C547.677 427.509 547.623 427.134 547.676 426.765C547.728 426.397 547.886 426.051 548.13 425.77C549.157 424.56 550.603 423.781 552.18 423.59C556.92 422.93 565.6 413.94 565.6 413.94Z" fill="black"/>
<path d="M639.999 406.59L639.669 419.17H627.859L625.449 406.59H639.999Z" fill="#F9BCA7"/>
<path d="M627.199 413.94C627.879 413.752 628.594 413.734 629.281 413.89C629.969 414.045 630.607 414.368 631.139 414.83C633.319 416.44 637.599 419.01 640.139 417.51C640.139 417.51 642.779 423.73 641.029 428.98H611.199C610.827 428.981 610.463 428.874 610.149 428.674C609.836 428.473 609.587 428.186 609.432 427.848C609.277 427.509 609.223 427.134 609.275 426.765C609.328 426.397 609.486 426.051 609.729 425.77C610.743 424.568 612.17 423.79 613.729 423.59C618.519 422.93 627.199 413.94 627.199 413.94Z" fill="black"/>
<path d="M561.06 400.65L561.93 408.75H581.77L584.47 400.65H561.06Z" fill="#FEDFF2"/>
<path d="M619.649 400.65L622.059 408.75H642.629V400.65H619.649Z" fill="#FEDFF2"/>
<path d="M584.16 267.06H628.26V263.11L576.54 259.17V267.06H584.16Z" fill="#8564A6"/>
<path d="M518.379 267.06H584.159L560.929 219.5C560.288 218.189 559.293 217.084 558.055 216.309C556.818 215.535 555.389 215.123 553.929 215.12H496.439C496.076 215.121 495.719 215.213 495.402 215.39C495.085 215.566 494.818 215.82 494.626 216.128C494.434 216.436 494.323 216.788 494.305 217.15C494.286 217.513 494.36 217.874 494.519 218.2L518.379 267.06Z" fill="#9B85C3"/>
<path d="M702.149 267.06H497.619V278.29H702.149V267.06Z" fill="#9B85C3"/>
<path d="M629.52 278.29L650.23 428.98H643.23L614.21 278.29H629.52Z" fill="#6D1B6D"/>
<path d="M610.529 267.06H497.619V278.29H610.529V267.06Z" fill="#7A5397"/>
<path d="M676.33 267.06H660.79C663.58 264.74 663.13 260.52 663.06 259.98C663.18 260.55 664.47 265.07 674.79 265.98C685.62 266.91 684.58 257.64 684.54 257.32C685.51 262.1 684 267.06 676.33 267.06Z" fill="black"/>
<path d="M695 428.98V458.5H500.9L500 428.98H695Z" fill="#C6E255"/>
<path d="M199.17 48.4701H196.77V115.48H199.17V48.4701Z" fill="#4E0F5D"/>
<path d="M281.679 48.4701H279.279V115.48H281.679V48.4701Z" fill="#4E0F5D"/>
<path d="M303.51 129.45H174.51L176.7 123.11H180.84L188.91 106.09H289.1L297.18 123.11H301.33L303.51 129.45Z" fill="#BB3996"/>
<path d="M303.509 129.45H271.849L269.679 123.11H265.529L257.449 106.09H289.099L297.179 123.11H301.329L303.509 129.45Z" fill="#64317A"/>
<path d="M500.9 458.5H269.09L282.01 33.8H487.99L489.23 74.48V74.4901L489.35 78.41L489.55 85.28L489.68 89.23L490.87 128.3L491.12 136.65L491.47 148.2L491.49 148.73L491.83 160.12L491.85 160.58V160.62V160.77V160.82L493.86 226.94L494.21 238.5L500.9 458.5Z" fill="#FCA0D7"/>
<path d="M321.43 123.45C333.84 123.45 343.9 113.39 343.9 100.98C343.9 88.5702 333.84 78.51 321.43 78.51C309.02 78.51 298.96 88.5702 298.96 100.98C298.96 113.39 309.02 123.45 321.43 123.45Z" fill="#FA51B6"/>
<path d="M321.429 119.59C331.707 119.59 340.039 111.258 340.039 100.98C340.039 90.7021 331.707 82.3701 321.429 82.3701C311.151 82.3701 302.819 90.7021 302.819 100.98C302.819 111.258 311.151 119.59 321.429 119.59Z" fill="#FDC0E4"/>
<path d="M321.7 101.58L306.29 100.12L306.4 98.9901L321.17 100.39L327.03 92.3101L327.94 92.9701L321.7 101.58Z" fill="#FCA0D7"/>
<path d="M321.429 102.04C322.015 102.04 322.489 101.566 322.489 100.98C322.489 100.395 322.015 99.9202 321.429 99.9202C320.844 99.9202 320.369 100.395 320.369 100.98C320.369 101.566 320.844 102.04 321.429 102.04Z" fill="#FA51B6"/>
<path d="M321.43 85.4301C321.944 85.4301 322.36 85.0137 322.36 84.5001C322.36 83.9864 321.944 83.5701 321.43 83.5701C320.916 83.5701 320.5 83.9864 320.5 84.5001C320.5 85.0137 320.916 85.4301 321.43 85.4301Z" fill="#FA51B6"/>
<path d="M321.43 118.4C321.944 118.4 322.36 117.984 322.36 117.47C322.36 116.956 321.944 116.54 321.43 116.54C320.916 116.54 320.5 116.956 320.5 117.47C320.5 117.984 320.916 118.4 321.43 118.4Z" fill="#FA51B6"/>
<path d="M333.09 90.2601C333.604 90.2601 334.02 89.8438 334.02 89.3301C334.02 88.8165 333.604 88.4001 333.09 88.4001C332.577 88.4001 332.16 88.8165 332.16 89.3301C332.16 89.8438 332.577 90.2601 333.09 90.2601Z" fill="#FA51B6"/>
<path d="M309.78 113.57C310.293 113.57 310.71 113.154 310.71 112.64C310.71 112.126 310.293 111.71 309.78 111.71C309.266 111.71 308.85 112.126 308.85 112.64C308.85 113.154 309.266 113.57 309.78 113.57Z" fill="#FA51B6"/>
<path d="M337.919 101.91C338.433 101.91 338.849 101.494 338.849 100.98C338.849 100.466 338.433 100.05 337.919 100.05C337.406 100.05 336.989 100.466 336.989 100.98C336.989 101.494 337.406 101.91 337.919 101.91Z" fill="#FA51B6"/>
<path d="M304.95 101.91C305.463 101.91 305.88 101.494 305.88 100.98C305.88 100.466 305.463 100.05 304.95 100.05C304.436 100.05 304.02 100.466 304.02 100.98C304.02 101.494 304.436 101.91 304.95 101.91Z" fill="#FA51B6"/>
<path d="M333.09 113.57C333.604 113.57 334.02 113.154 334.02 112.64C334.02 112.126 333.604 111.71 333.09 111.71C332.577 111.71 332.16 112.126 332.16 112.64C332.16 113.154 332.577 113.57 333.09 113.57Z" fill="#FA51B6"/>
<path d="M309.78 90.2601C310.293 90.2601 310.71 89.8438 310.71 89.3301C310.71 88.8165 310.293 88.4001 309.78 88.4001C309.266 88.4001 308.85 88.8165 308.85 89.3301C308.85 89.8438 309.266 90.2601 309.78 90.2601Z" fill="#FA51B6"/>
<path d="M493.859 226.94H375.819V78.4102H489.349L489.559 85.2802L489.679 89.2302L490.869 128.3L491.119 136.64L491.469 148.2L491.489 148.73L491.829 160.12H491.849V160.62V160.77V160.82L493.859 226.94Z" fill="#FDC0E4"/>
<path d="M491.849 160.77V220.07H385.989V85.28H489.559L489.679 89.23L490.869 128.3L491.119 136.64L491.469 148.2L491.489 148.73L491.829 160.12H491.849V160.62V160.77Z" fill="#BAFEF1"/>
<path opacity="0.5" d="M431.219 85.28L385.989 130.52V113.72L414.429 85.28H431.219Z" fill="white"/>
<path opacity="0.5" d="M491.47 148.2L490.94 148.73L484.65 155.01L483.97 155.7L432.24 207.43L420.44 219.23L419.6 220.07H407.69L432.12 195.64L463.69 164.07L465.69 162.07L466.52 161.25L479 148.73L485 142.73L485.66 142.07L491.07 136.66L491.47 148.2Z" fill="white"/>
<path opacity="0.5" d="M490.869 128.3L486.199 132.97L485.549 133.62L432.849 186.32L412.059 207.11L402.319 216.85L399.099 220.07H385.989V149.59L386.849 148.73L446.349 89.23L450.289 85.28H489.559L489.679 89.23L490.869 128.3Z" fill="white"/>
<path d="M489.679 89.23H385.989V85.28H489.559L489.679 89.23Z" fill="#FCA0D7"/>
<path d="M491.829 160.12H385.989V148.73H491.489L491.829 160.12Z" fill="#FDC0E4"/>
<path d="M491.849 160.12H385.989V164.07H491.849V160.12Z" fill="#FCA0D7"/>
<path d="M489.35 78.4102H374C373.47 78.4102 372.961 78.1994 372.586 77.8244C372.211 77.4493 372 76.9406 372 76.4102C372 75.8797 372.211 75.371 372.586 74.9959C372.961 74.6209 373.47 74.4102 374 74.4102H489.23L489.35 78.4102Z" fill="#FEDFF2"/>
<path d="M494.219 238.5C485.219 236.79 485.469 232.5 481.359 232.41C476.209 232.3 476.979 237.41 469.969 237.11C462.959 236.81 458.809 232.19 452.689 232.41C446.569 232.63 443.929 243.86 441.309 239.19C439.023 235.327 437.181 231.218 435.819 226.94C435.086 224.684 434.472 222.391 433.979 220.07C433.081 215.907 432.499 211.681 432.239 207.43C431.989 203.505 431.949 199.569 432.119 195.64C432.249 192.54 432.499 189.43 432.849 186.32C433.736 178.819 435.123 171.386 436.999 164.07C437.339 162.75 437.689 161.42 438.049 160.12C439.122 156.22 440.286 152.423 441.539 148.73C443.539 142.73 445.789 137.01 448.059 131.82C453.906 118.284 457.581 103.911 458.949 89.2301C459.079 87.8201 459.189 86.5001 459.259 85.2301C459.259 84.7301 459.319 84.2301 459.349 83.7901V83.1701C459.439 81.3001 459.479 79.6801 459.479 78.3601C459.479 75.9401 459.419 74.5501 459.409 74.4401H489.239L489.359 78.3601L489.569 85.2301L489.689 89.2301L490.879 128.3L491.129 136.64L491.479 148.2V148.73L491.819 160.12V160.58V160.82L493.819 226.94L494.219 238.5Z" fill="#FA51B6"/>
<path d="M435.469 248.09H411.539L410.079 267.09H357.879L356.419 248.09H332.489C340.369 235.25 348.839 213.26 355.719 207.25C361.359 202.33 370.909 199.65 374.209 198.84C374.949 198.65 375.379 198.57 375.379 198.57L383.979 200.1L392.579 198.57C392.579 198.57 393.099 198.68 393.989 198.9C397.509 199.78 406.729 202.45 412.229 207.25C419.119 213.26 427.589 235.25 435.469 248.09Z" fill="#FEDFF2"/>
<path d="M395.65 267.06H383.79L382.77 247.12H396.67L395.65 267.06Z" fill="#B1A7E0"/>
<path d="M389.5 220.07L393.22 224.59L389.72 244.39" stroke="#3C0949" stroke-width="1.86" stroke-linecap="round" stroke-linejoin="round"/>
<path d="M398.09 244.39H381.35V249.09H398.09V244.39Z" fill="#9B85C3"/>
<path d="M430.63 246.74V259.78L412.48 267.06V246.74H430.63Z" fill="#FCAA86"/>
<path d="M396 255.93C396 255.93 405.79 255.71 409.78 254.93C413.77 254.15 419.52 251.21 425.78 253.29C432.04 255.37 434.26 267.1 419.87 267.1H396V255.93Z" fill="#FCAA86"/>
<path d="M396 255.93C396 255.93 405.79 255.71 409.78 254.93C413.77 254.15 419.52 251.21 425.78 253.29C426.814 253.656 427.752 254.251 428.524 255.03C429.297 255.809 429.883 256.753 430.24 257.79" stroke="black" stroke-width="0.62" stroke-miterlimit="10"/>
<path d="M383.14 253.5C383.14 253.5 387.75 253.29 389.61 253.05C391.47 252.81 394.7 252.36 396.31 253.29C397.92 254.22 397.38 256.9 397.38 256.9C397.65 257.511 397.768 258.179 397.724 258.846C397.681 259.513 397.477 260.159 397.13 260.73C397.437 261.22 397.595 261.789 397.586 262.367C397.578 262.946 397.402 263.509 397.08 263.99C397.08 263.99 397.93 266.99 394.08 266.99C390.23 266.99 384.5 267.13 383.41 266.69C383.166 266.606 382.956 266.444 382.813 266.23C382.67 266.015 382.601 265.759 382.617 265.502C382.633 265.244 382.732 264.999 382.901 264.804C383.07 264.608 383.297 264.474 383.55 264.42C383.106 264.177 382.754 263.794 382.55 263.33C382.439 263.067 382.382 262.785 382.382 262.5C382.382 262.215 382.439 261.933 382.55 261.67C382.734 261.273 383.039 260.945 383.42 260.73C382.939 260.569 382.534 260.236 382.283 259.795C382.032 259.354 381.952 258.836 382.06 258.34C382.101 258.026 382.229 257.73 382.431 257.486C382.633 257.241 382.899 257.059 383.2 256.96C382.96 256.84 382.25 256.96 381.89 256.04C381.773 255.743 381.724 255.424 381.747 255.105C381.769 254.787 381.862 254.478 382.02 254.2C382.145 254.009 382.31 253.848 382.503 253.727C382.697 253.607 382.914 253.529 383.14 253.5Z" fill="#FCAA86"/>
<path d="M397.47 255.89C397.471 256.242 397.441 256.594 397.38 256.94C397.65 257.552 397.768 258.219 397.724 258.886C397.681 259.553 397.477 260.199 397.13 260.77C397.437 261.261 397.595 261.829 397.587 262.408C397.578 262.986 397.402 263.549 397.08 264.03C397.08 264.03 397.93 267.03 394.08 267.03" stroke="black" stroke-width="0.62" stroke-linecap="round" stroke-linejoin="round"/>
<path d="M430.63 246.74V253.31L412.48 249.09V246.74H430.63Z" fill="black"/>
<path d="M411.539 248.09C411.539 248.09 413.629 230.09 408.049 222.67C402.469 215.25 389.749 208.32 389.749 208.32H378.199C378.199 208.32 365.479 215.23 359.899 222.67C354.319 230.11 356.419 248.09 356.419 248.09H332.489C340.369 235.25 348.839 213.26 355.719 207.25C361.359 202.33 370.909 199.65 374.209 198.84C374.949 198.65 375.379 198.57 375.379 198.57L383.979 200.1L392.579 198.57C392.579 198.57 393.099 198.68 393.989 198.9C397.509 199.78 406.729 202.45 412.229 207.25C419.119 213.25 427.589 235.25 435.469 248.09H411.539Z" fill="#FA61BD"/>
<path d="M411.82 244.39C412.1 238.72 412.04 228 408.05 222.67C402.47 215.23 389.75 208.32 389.75 208.32" stroke="black" stroke-width="0.62" stroke-linecap="round" stroke-linejoin="round"/>
<path d="M378.199 208.32C378.199 208.32 365.479 215.23 359.899 222.67C355.899 228 355.899 238.72 356.129 244.39" stroke="black" stroke-width="0.62" stroke-linecap="round" stroke-linejoin="round"/>
<path d="M394 199.67C394 205.48 389.56 210.19 384.08 210.19C378.6 210.19 374.16 205.48 374.16 199.67C374.16 199.39 374.16 199.11 374.16 198.84C374.9 198.65 375.33 198.57 375.33 198.57L383.93 200.1L392.53 198.57C392.53 198.57 393.05 198.68 393.94 198.9C394 199.15 394 199.41 394 199.67Z" fill="#FA51B6"/>
<path d="M299.21 278.29L278.5 428.98H285.5L314.51 278.29H299.21Z" fill="#9B85C3"/>
<path d="M471.07 278.29L491.79 428.98H484.79L455.77 278.29H471.07Z" fill="#9B85C3"/>
<path d="M481.86 267.06H288.42V278.29H481.86V267.06Z" fill="#7A5397"/>
<path d="M429.449 309.86H340.839C336.94 309.86 333.779 313.021 333.779 316.92V325.13C333.779 329.029 336.94 332.19 340.839 332.19H429.449C433.348 332.19 436.509 329.029 436.509 325.13V316.92C436.509 313.021 433.348 309.86 429.449 309.86Z" fill="#7A5397"/>
<path d="M340.33 332.19L326.14 428.98H330.52L347.81 332.19H340.33Z" fill="#9B85C3"/>
<path d="M429.95 332.19L444.14 428.98H439.76L422.48 332.19H429.95Z" fill="#9B85C3"/>
<path d="M353.25 306.26C353.25 306.26 342.89 320.45 341.25 328.76C339.61 337.07 348.39 414.69 348.39 414.69H367.8C367.8 414.69 369.98 362.89 370.28 357.06C370.58 351.23 379.03 333.14 382.38 325.99C385.73 318.84 385.16 306.26 385.16 306.26H353.25Z" fill="#6D1B6D"/>
<path d="M350.91 414.69C347.928 418.142 344.251 420.926 340.12 422.86C333.41 425.92 333.7 426.8 335.6 428.98H366.7C366.975 428.98 367.247 428.926 367.5 428.82C367.754 428.714 367.984 428.559 368.178 428.364C368.371 428.169 368.524 427.937 368.627 427.682C368.73 427.428 368.782 427.155 368.78 426.88C368.707 422.678 367.793 418.533 366.09 414.69H350.91Z" fill="black"/>
<path d="M348 416.27L350.77 416.58C351.94 416.71 351.87 417.58 350.67 417.65L346.67 417.9C345.67 417.96 345.38 418.6 346.2 418.9L347.5 419.34C348.43 419.67 347.87 420.4 346.75 420.34L342.26 420.05C341.16 419.98 340.6 420.69 341.48 421.05L345.06 422.4" stroke="white" stroke-width="0.96" stroke-miterlimit="10"/>
<path d="M421.85 414.69H402.45C402.45 414.69 400.26 362.9 399.97 357.06C399.68 351.22 391.22 333.14 387.86 325.99C384.5 318.84 385.09 306.26 385.09 306.26H417.09C420.153 310.528 422.942 314.987 425.44 319.61C427.052 322.486 428.266 325.567 429.05 328.77C430.61 337.08 421.85 414.69 421.85 414.69Z" fill="#6D1B6D"/>
<path d="M425.39 319.61C425.39 319.61 412.13 338.56 408.63 344.61C405.13 350.66 402.45 414.69 402.45 414.69C402.45 414.69 400.26 362.9 399.97 357.06C399.68 351.22 391.22 333.14 387.86 325.99C384.5 318.84 385.09 306.26 385.09 306.26H417.09C420.136 310.53 422.909 314.989 425.39 319.61Z" fill="black"/>
<path d="M344.899 319.61C344.899 319.61 358.149 338.56 361.649 344.61C365.149 350.66 367.839 414.69 367.839 414.69C367.839 414.69 370.019 362.9 370.319 357.06C370.619 351.22 379.059 333.14 382.419 325.99C385.779 318.84 385.199 306.26 385.199 306.26H353.249C350.186 310.528 347.397 314.987 344.899 319.61Z" fill="black"/>
<path d="M419.37 414.69C422.357 418.141 426.037 420.924 430.17 422.86C436.88 425.92 436.59 426.8 434.69 428.98H403.59C403.315 428.981 403.042 428.928 402.788 428.823C402.533 428.717 402.303 428.562 402.109 428.367C401.915 428.171 401.763 427.939 401.66 427.684C401.557 427.428 401.506 427.155 401.51 426.88C401.582 422.678 402.497 418.533 404.2 414.69H419.37Z" fill="black"/>
<path d="M422.299 416.27L419.529 416.58C418.349 416.71 418.429 417.58 419.629 417.65L423.629 417.9C424.629 417.96 424.919 418.6 424.109 418.9L422.809 419.34C421.879 419.67 422.429 420.4 423.549 420.34L428.049 420.05C429.139 419.98 429.709 420.69 428.819 421.05L425.239 422.4" stroke="white" stroke-width="0.96" stroke-miterlimit="10"/>
<path d="M459.69 230.97C459.633 230.971 459.578 230.956 459.53 230.926C459.482 230.895 459.444 230.852 459.42 230.8C453.5 219.8 454.23 201.8 461.58 177.34C470.22 148.55 470.75 129.34 470.76 129.12C470.76 129.038 470.793 128.959 470.851 128.901C470.909 128.843 470.988 128.81 471.07 128.81C471.152 128.81 471.231 128.843 471.289 128.901C471.347 128.959 471.38 129.038 471.38 129.12C471.38 129.31 470.84 148.64 462.17 177.51C454.87 201.83 454.17 219.66 459.96 230.51C460 230.582 460.009 230.666 459.987 230.745C459.964 230.823 459.911 230.89 459.84 230.93C459.795 230.957 459.743 230.971 459.69 230.97Z" fill="black"/>
<path d="M481.86 228.5C481.801 228.501 481.743 228.485 481.693 228.453C481.643 228.42 481.604 228.374 481.58 228.32C477.488 218.144 476.391 207.009 478.42 196.23C481.88 178.96 487.16 135.13 485.42 115.35C485.416 115.31 485.42 115.269 485.432 115.231C485.444 115.192 485.464 115.156 485.49 115.125C485.516 115.095 485.548 115.069 485.584 115.051C485.62 115.033 485.66 115.023 485.7 115.02C485.741 115.016 485.782 115.02 485.821 115.032C485.86 115.044 485.897 115.063 485.928 115.089C485.96 115.115 485.986 115.147 486.005 115.184C486.024 115.22 486.036 115.259 486.04 115.3C487.78 135.13 482.49 179.05 479.04 196.35C477.041 207.001 478.12 218.001 482.15 228.06C482.168 228.097 482.179 228.137 482.181 228.177C482.184 228.218 482.178 228.259 482.164 228.298C482.149 228.336 482.128 228.371 482.1 228.401C482.071 228.43 482.038 228.454 482 228.47C481.957 228.492 481.908 228.502 481.86 228.5Z" fill="black"/>
<path d="M475.66 111.64H475.61C475.529 111.626 475.457 111.579 475.41 111.512C475.363 111.444 475.345 111.361 475.36 111.28C475.36 111.12 478.3 95.2301 475.36 83.6201C475.341 83.5393 475.355 83.4546 475.398 83.3837C475.441 83.3128 475.51 83.2614 475.59 83.2401C475.634 83.2227 475.681 83.2159 475.728 83.2203C475.776 83.2247 475.821 83.2403 475.861 83.2656C475.901 83.291 475.934 83.3255 475.958 83.3662C475.983 83.407 475.997 83.4529 476 83.5001C479 95.2501 476 111.27 476 111.43C475.975 111.499 475.928 111.557 475.866 111.595C475.805 111.633 475.732 111.649 475.66 111.64Z" fill="black"/>
<path d="M470.19 235.42C470.134 235.421 470.08 235.407 470.032 235.378C469.985 235.35 469.946 235.309 469.92 235.26C466.57 228.85 466.39 216.1 466.38 215.56C466.38 215.478 466.413 215.399 466.471 215.341C466.529 215.283 466.608 215.25 466.69 215.25C466.73 215.249 466.77 215.256 466.808 215.27C466.845 215.285 466.88 215.306 466.909 215.334C466.937 215.362 466.96 215.396 466.976 215.433C466.992 215.47 467 215.51 467 215.55C467 215.69 467.19 228.7 470.47 234.97C470.489 235.006 470.501 235.046 470.505 235.086C470.509 235.127 470.504 235.168 470.492 235.207C470.48 235.246 470.46 235.282 470.434 235.314C470.408 235.345 470.376 235.371 470.34 235.39C470.292 235.41 470.241 235.42 470.19 235.42Z" fill="black"/>
<path d="M392.44 198.57C392.44 198.57 391.89 208.12 383.98 208.12C376.07 208.12 375.51 198.57 375.51 198.57C376.302 198.611 377.084 198.374 377.72 197.9C377.872 197.767 377.993 197.602 378.076 197.417C378.159 197.233 378.201 197.032 378.2 196.83V189.83H389.75V196.83C389.749 197.026 389.79 197.221 389.87 197.4C389.866 197.43 389.866 197.46 389.87 197.49C389.946 197.65 390.055 197.793 390.19 197.91C390.838 198.39 391.635 198.624 392.44 198.57Z" fill="#FCAA86"/>
<path d="M389.909 197.5C382.379 198.06 379.339 195.88 378.199 194.56V189.87H389.749V196.87C389.748 197.066 389.789 197.261 389.869 197.44C389.88 197.461 389.894 197.482 389.909 197.5Z" fill="black"/>
<path d="M372.05 165.34H395.9V183.5C395.9 186.659 394.647 189.689 392.416 191.925C390.185 194.162 387.158 195.422 384 195.43C382.431 195.433 380.878 195.126 379.428 194.528C377.978 193.929 376.661 193.051 375.551 191.943C374.441 190.835 373.56 189.519 372.96 188.07C372.359 186.621 372.05 185.068 372.05 183.5V165.34Z" fill="#FCAA86"/>
<path d="M366.69 168.29C367.57 162.73 371.5 161.4 371.5 161.4C371.606 159.888 372.269 158.469 373.361 157.418C374.452 156.367 375.895 155.758 377.41 155.71C378.72 153.08 385.29 151.44 389.88 154.42C394.47 157.4 398.53 155.93 399.88 158.01C401.23 160.09 397.15 163.15 397.15 163.15C397.15 163.15 400.76 165.89 400.76 168.95C400.76 172.01 398.46 175.29 398.46 175.29V178.29H395.9C392 174.75 391 167.5 391 167.5C384.74 172.78 380 169.28 380 169.28C379.314 170.143 378.379 170.774 377.321 171.087C376.264 171.401 375.136 171.381 374.09 171.03C374.235 172.311 374.126 173.608 373.769 174.847C373.412 176.086 372.814 177.242 372.01 178.25H369.35V175.25C368.324 174.434 367.536 173.358 367.068 172.134C366.6 170.91 366.47 169.582 366.69 168.29Z" fill="#3C0949"/>
<path d="M372.05 175.95C371.502 175.475 370.828 175.168 370.11 175.065C369.392 174.962 368.66 175.068 368 175.37C365.59 176.37 366.32 183.5 372.05 183.5V175.95Z" fill="#FCAA86"/>
<path d="M395.899 175.95C396.448 175.475 397.121 175.168 397.839 175.065C398.557 174.962 399.29 175.068 399.949 175.37C402.359 176.37 401.629 183.5 395.899 183.5V175.95Z" fill="#FCAA86"/>
<path d="M379.19 180.39C379.731 180.39 380.17 179.727 380.17 178.91C380.17 178.093 379.731 177.43 379.19 177.43C378.649 177.43 378.21 178.093 378.21 178.91C378.21 179.727 378.649 180.39 379.19 180.39Z" fill="black"/>
<path d="M388.77 180.39C389.311 180.39 389.75 179.727 389.75 178.91C389.75 178.093 389.311 177.43 388.77 177.43C388.229 177.43 387.79 178.093 387.79 178.91C387.79 179.727 388.229 180.39 388.77 180.39Z" fill="black"/>
<path d="M384 178.69C384 178.69 383.78 181.89 383.67 182.69C383.621 182.884 383.64 183.089 383.724 183.271C383.808 183.453 383.951 183.601 384.13 183.69" stroke="black" stroke-width="0.62" stroke-linecap="round" stroke-linejoin="round"/>
<path d="M377.75 214.1C382.041 214.1 385.52 210.621 385.52 206.33C385.52 202.039 382.041 198.56 377.75 198.56C373.458 198.56 369.98 202.039 369.98 206.33C369.98 210.621 373.458 214.1 377.75 214.1Z" fill="#BB3996"/>
<path d="M385.657 209.657L367.502 205.177L362.891 223.867L381.046 228.346L385.657 209.657Z" fill="#7A5397"/>
<path d="M368.549 201.44C366.857 202.65 365.501 204.271 364.609 206.15C365.1 205.929 365.632 205.815 366.169 205.815C366.707 205.815 367.239 205.929 367.729 206.15C369.479 206.89 369.939 205.79 372.949 206.53C375.959 207.27 381.019 210.03 383.099 210.2C384.021 210.247 384.912 210.554 385.667 211.084C386.422 211.615 387.013 212.349 387.369 213.2C387.369 213.2 388.619 208.96 387.989 207.11C387.359 205.26 385.339 205.76 384.109 204.94C381.987 203.741 379.661 202.944 377.249 202.59C375.329 202.48 371.889 202.1 370.849 201.49C370.493 201.316 370.102 201.221 369.705 201.212C369.308 201.203 368.913 201.281 368.549 201.44Z" fill="#64317A"/>
<path d="M383 213.5C382.132 214.628 381.056 215.579 379.83 216.3C381.43 216.81 380.96 218.3 378.3 219.3C376.168 220.189 374.085 221.191 372.06 222.3C372.06 222.3 362.76 242.21 358.28 253.92C353.8 265.63 348.65 267.13 341.28 267.13C333.91 267.13 330.02 261.03 331.22 257.21C331.51 256.27 331.83 255.21 332.15 254.21L334.07 248.13H341.07C341.07 248.13 361.82 222.34 363 218.5C364.18 214.66 363.83 210.57 364.59 208.93C365.15 207.879 366.049 207.048 367.14 206.57C367.68 207.57 368.2 207.34 368.2 207.34C370.263 206.661 372.232 205.724 374.06 204.55C374.729 203.926 375.552 203.491 376.444 203.289C377.337 203.087 378.267 203.125 379.14 203.4C380.612 203.741 381.983 204.427 383.14 205.4C383.52 206 383.29 206.91 382.14 206.65C378.19 205.78 378.3 208.08 378.3 208.08C380.6 207.94 383.81 207.79 383.92 209.08C384.03 210.37 381.39 211.81 381.23 211.89C382.45 211.5 383.83 212.02 383 213.5Z" fill="#FCAA86"/>
<path d="M341.09 248.09L334.67 254.8C334.233 254.902 333.778 254.898 333.343 254.789C332.908 254.679 332.506 254.467 332.17 254.17L334.09 248.09H341.09Z" fill="black"/>
<path d="M481.86 267.06L385.14 357.06L288.42 267.06H481.86Z" fill="#C7C9FD"/>
<path d="M468.12 267.06L385.14 344.28L302.16 267.06H468.12Z" fill="#9B85C3"/>
<path d="M383.239 257.03L395.079 256.9" stroke="black" stroke-width="0.62" stroke-linecap="round" stroke-linejoin="round"/>
<path d="M383.42 260.8L395.26 260.67" stroke="black" stroke-width="0.62" stroke-linecap="round" stroke-linejoin="round"/>
<path d="M383.58 264.49L395.42 264.36" stroke="black" stroke-width="0.62" stroke-linecap="round" stroke-linejoin="round"/>
<path d="M379.6 174.71C379.6 174.71 375.8 174.27 375.51 177.99" stroke="black" stroke-width="0.62" stroke-linecap="round" stroke-linejoin="round"/>
<path d="M387.71 174.71C387.71 174.71 391.5 174.27 391.79 177.99" stroke="black" stroke-width="0.62" stroke-linecap="round" stroke-linejoin="round"/>
<path d="M382.1 187.71C384.275 187.082 386.361 186.182 388.31 185.03C388.31 185.03 389.43 189.85 386.09 190.39C382.75 190.93 383.41 188.92 382.1 187.71Z" fill="white"/>
<path d="M488.79 83.8401H459.32C459.275 83.8417 459.231 83.8339 459.191 83.8171C459.15 83.8003 459.113 83.7749 459.082 83.7427C459.052 83.7105 459.029 83.6722 459.015 83.6304C459.001 83.5885 458.995 83.5441 459 83.5001C459 83.4178 459.032 83.339 459.09 83.2809C459.149 83.2227 459.227 83.1901 459.31 83.1901H488.78C488.862 83.1901 488.941 83.2227 488.999 83.2809C489.057 83.339 489.09 83.4178 489.09 83.5001C489.094 83.5424 489.089 83.5851 489.076 83.6256C489.063 83.6661 489.042 83.7034 489.014 83.7353C488.985 83.7672 488.951 83.7929 488.912 83.811C488.874 83.829 488.832 83.8389 488.79 83.8401Z" fill="black"/>
<path d="M356.14 155.79H290.26V162.74H356.14V155.79Z" fill="#FA51B6"/>
<path d="M297.329 140.15C297.329 140.15 297.629 130.21 284.859 125.05C284.859 125.05 291.249 123.71 297.629 130.21C304.009 136.71 301.189 145.91 301.189 145.91L297.329 140.15Z" fill="#FA61BD"/>
<path d="M297.33 144.57C297.33 144.57 300.46 128.49 293.33 118.91C293.33 118.91 305.97 127.14 302.33 144.57H297.33Z" fill="#FA51B6"/>
<path d="M299.59 142.57C299.59 142.57 298 132.42 307.33 123.21C304.38 129.759 303.037 136.917 303.41 144.09L299.59 142.57Z" fill="#FB71C3"/>
<path d="M300.94 140.91C301.457 138.095 302.88 135.526 304.992 133.595C307.104 131.663 309.79 130.475 312.64 130.21C312.64 130.21 305.51 135.49 305.64 143.1H301.79L300.94 140.91Z" fill="#FA61BD"/>
<path d="M306.81 155.79H295.82L294.13 140.15H308.5L306.81 155.79Z" fill="#FA51B6"/>
<path d="M352.63 125.54H343.6V155.79H352.63V125.54Z" fill="#FA61BD"/>
<path d="M343.6 129.35H336.88V155.79H343.6V129.35Z" fill="#FA61BD"/>
<path d="M336.88 127.08H329.06V155.79H336.88V127.08Z" fill="#FB71C3"/>
<path d="M328.453 127.772L320.946 125.66L313.195 153.222L320.702 155.333L328.453 127.772Z" fill="#FB80CA"/>
<path d="M500.9 458.5H269.09L269.99 428.98H500L500.9 458.5Z" fill="#FDC0E4"/>
</g>
<defs>
<filter id="filter0_d_1_229" x="0" y="0.5" width="820" height="583" filterUnits="userSpaceOnUse" color-interpolation-filters="sRGB">
<feFlood flood-opacity="0" result="BackgroundImageFix"/>
<feColorMatrix in="SourceAlpha" type="matrix" values="0 0 0 0 0 0 0 0 0 0 0 0 0 0 0 0 0 0 127 0" result="hardAlpha"/>
<feOffset dx="25" dy="25"/>
<feGaussianBlur stdDeviation="50"/>
<feComposite in2="hardAlpha" operator="out"/>
<feColorMatrix type="matrix" values="0 0 0 0 0 0 0 0 0 0 0 0 0 0 0 0 0 0 0.1 0"/>
<feBlend mode="normal" in2="BackgroundImageFix" result="effect1_dropShadow_1_229"/>
<feBlend mode="normal" in="SourceGraphic" in2="effect1_dropShadow_1_229" result="shape"/>
</filter>
<clipPath id="clip0_1_229">
<rect x="75" y="75.5" width="620" height="383" rx="16" fill="white"/>
</clipPath>
</defs>
</svg>
