<svg width="106" height="82" viewBox="0 0 106 82" fill="none" xmlns="http://www.w3.org/2000/svg">
<path d="M21.0161 28.0197C26.4005 28.0197 27.3911 32.6823 28.1509 34.7473C29.0627 37.1452 29.7466 42.2742 29.7466 45.8711C29.7466 49.4681 27.3151 51.1333 24.3517 50.0675V74.8464C24.3517 75.5125 24.1997 76.112 23.8198 76.6449C23.2879 77.4442 22.2241 78.3768 20.1725 78.2436C20.1725 78.2436 16.3733 78.4434 16.3733 73.9139C16.3733 78.4434 12.5741 78.2436 12.5741 78.2436C10.5225 78.3768 9.4587 77.5109 8.9268 76.6449C8.54688 76.112 8.39491 75.4459 8.39491 74.8464V50.0675C5.35552 51.1333 3 49.4681 3 45.8711C3 42.3408 3.68386 37.2118 4.59568 34.7473C5.43151 32.6157 6.31385 28.0197 10.3118 28.0197" stroke="#4E0F5D" stroke-width="6" stroke-miterlimit="10" stroke-linecap="round" stroke-linejoin="round"/>
<path d="M16.3729 73.8473L16.373 57.4694" stroke="#4E0F5D" stroke-width="6" stroke-miterlimit="10" stroke-linecap="round" stroke-linejoin="round"/>
<path d="M15.6388 20.5395C20.4822 20.5395 24.4086 16.6132 24.4086 11.7698C24.4086 6.92636 20.4822 3 15.6388 3C10.7954 3 6.86902 6.92636 6.86902 11.7698C6.86902 16.6132 10.7954 20.5395 15.6388 20.5395Z" stroke="#4E0F5D" stroke-width="6" stroke-miterlimit="10" stroke-linecap="round" stroke-linejoin="round"/>
<path d="M57.642 28.0197C63.0264 28.0197 64.017 32.6823 64.7768 34.7473C65.6887 37.1452 66.3725 42.2742 66.3725 45.8711C66.3725 49.4681 63.941 51.1333 60.9776 50.0675V74.8464C60.9776 75.5125 60.8256 76.112 60.4457 76.6449C59.9138 77.4442 58.85 78.3768 56.7984 78.2436C56.7984 78.2436 52.9992 78.4434 52.9992 73.9139C52.9992 78.4434 49.2 78.2436 49.2 78.2436C47.1484 78.3768 46.0846 77.5109 45.5527 76.6449C45.1728 76.112 45.0208 75.4459 45.0208 74.8464V50.0675C41.9814 51.1333 39.6259 49.4681 39.6259 45.8711C39.6259 42.3408 40.3098 37.2118 41.2216 34.7473C42.0574 32.6157 42.9398 28.0197 46.9378 28.0197" stroke="#4E0F5D" stroke-width="6" stroke-miterlimit="10" stroke-linecap="round" stroke-linejoin="round"/>
<path d="M52.9988 73.8474L52.999 57.4695" stroke="#4E0F5D" stroke-width="6" stroke-miterlimit="10" stroke-linecap="round" stroke-linejoin="round"/>
<path d="M52.265 20.5395C57.1084 20.5395 61.0347 16.6132 61.0347 11.7698C61.0347 6.92636 57.1084 3 52.265 3C47.4215 3 43.4952 6.92636 43.4952 11.7698C43.4952 16.6132 47.4215 20.5395 52.265 20.5395Z" stroke="#4E0F5D" stroke-width="6" stroke-miterlimit="10" stroke-linecap="round" stroke-linejoin="round"/>
<path d="M94.2709 28.0197C99.6553 28.0197 100.646 32.6823 101.406 34.7473C102.318 37.1452 103.001 42.2742 103.001 45.8711C103.001 49.4681 100.57 51.1333 97.6065 50.0675V74.8464C97.6065 75.5125 97.4545 76.112 97.0746 76.6449C96.5427 77.4442 95.4789 78.3768 93.4273 78.2436C93.4273 78.2436 89.6281 78.4434 89.6281 73.9139C89.6281 78.4434 85.8289 78.2436 85.8289 78.2436C83.7773 78.3768 82.7135 77.5109 82.1816 76.6449C81.8017 76.112 81.6497 75.4459 81.6497 74.8464V50.0675C78.6103 51.1333 76.2548 49.4681 76.2548 45.8711C76.2548 42.3408 76.9387 37.2118 77.8505 34.7473C78.6863 32.6157 79.5686 28.0197 83.5666 28.0197" stroke="#4E0F5D" stroke-width="6" stroke-miterlimit="10" stroke-linecap="round" stroke-linejoin="round"/>
<path d="M89.6277 73.8474L89.6278 57.4695" stroke="#4E0F5D" stroke-width="6" stroke-miterlimit="10" stroke-linecap="round" stroke-linejoin="round"/>
<path d="M88.8927 20.5395C93.7361 20.5395 97.6625 16.6132 97.6625 11.7698C97.6625 6.92636 93.7361 3 88.8927 3C84.0493 3 80.123 6.92636 80.123 11.7698C80.123 16.6132 84.0493 20.5395 88.8927 20.5395Z" stroke="#4E0F5D" stroke-width="6" stroke-miterlimit="10" stroke-linecap="round" stroke-linejoin="round"/>
</svg>
