<svg width="106" height="103" viewBox="0 0 106 103" fill="none" xmlns="http://www.w3.org/2000/svg">
<path d="M10.3958 49.1429C9.24999 39.5599 8.9375 30.8102 8.9375 23.1021C25.0828 20.9147 41.124 18.7272 57.2693 16.5398C59.4567 23.3104 61.6441 31.331 63.2066 40.4974" stroke="#4E0F5D" stroke-width="6" stroke-miterlimit="10" stroke-linecap="round" stroke-linejoin="round"/>
<path d="M12.583 63.6217C13.9371 70.6006 15.4996 76.9546 17.062 82.5794L49.8735 78.1004" stroke="#4E0F5D" stroke-width="6" stroke-miterlimit="10" stroke-linecap="round" stroke-linejoin="round"/>
<path d="M9.0387 22.0219L3 10.7081L10.1873 13.1038C11.6456 13.5205 13.1038 13.4163 14.3538 12.583L20.0828 9.04147C21.0203 8.52066 22.0619 8.41649 22.9994 8.62482L29.5616 10.2914C31.1241 10.7081 32.8949 10.3956 34.249 9.56229L39.4572 6.22906C40.603 5.49992 42.0612 5.29159 43.3112 5.70825L49.1444 7.58319C50.2901 7.99984 51.6443 7.79151 52.6859 7.16653L60.0815 3L57.0463 15.9832" stroke="#4E0F5D" stroke-width="6" stroke-miterlimit="10" stroke-linecap="round" stroke-linejoin="round"/>
<path d="M17.0992 85.1262L13.8701 95.7509L20.1199 91.4802C21.3699 90.6469 22.9323 90.4386 24.2864 90.8552L30.7446 92.7301C31.682 93.0426 32.7237 92.9385 33.557 92.4177L39.3901 89.0844C40.8484 88.2511 42.515 88.0428 44.0775 88.5636L49.1815 90.1261" stroke="#4E0F5D" stroke-width="6" stroke-miterlimit="10" stroke-linecap="round" stroke-linejoin="round"/>
<path d="M90.047 20.0063L85.1512 18.9924L83.2288 28.2741L88.1247 29.288L90.047 20.0063Z" fill="#FA51B6"/>
<path d="M102.9 58.4544C103.108 60.746 103.004 63.0376 102.483 65.4333L96.3376 95.224C95.7126 98.0365 93.0043 99.8072 90.1919 99.2864L54.2556 91.8908C51.4432 91.2658 49.6724 88.5576 50.1932 85.7452L56.3388 55.9545C59.0471 43.1424 71.5467 35.0176 84.2546 37.6217C90.6086 38.9759 95.8167 42.7257 99.15 47.7256C99.5666 48.4547 99.9833 49.1839 100.4 49.913" stroke="#4E0F5D" stroke-width="6" stroke-miterlimit="10" stroke-linecap="round" stroke-linejoin="round"/>
<path d="M71.6513 38.455L73.4221 29.8094C73.8388 27.9345 75.7137 26.6845 77.5886 26.997L95.0881 30.6427C96.963 31.0594 98.213 32.9343 97.7963 34.8093L95.9214 43.8715" stroke="#4E0F5D" stroke-width="6" stroke-miterlimit="10" stroke-linecap="round" stroke-linejoin="round"/>
<path d="M97.536 15.3608L79.3104 11.5103C78.2836 11.2536 77.2568 11.8954 77.0001 13.0505L76.4867 15.3608C76.23 16.3876 76.8717 17.4144 78.0269 17.6711L96.2525 21.3933L95.7391 24.0886C95.4824 25.1154 96.1242 26.1422 97.2793 26.3989L99.5896 26.9123C100.616 27.169 101.643 26.5273 101.9 25.3721L102.413 22.6768L102.927 19.8531C103.312 18.0562 102.157 16.3876 100.36 16.0026L97.536 15.3608Z" fill="#4E0F5D"/>
<path d="M102.171 67.0999L56.1308 57.5169" stroke="#4E0F5D" stroke-width="6" stroke-miterlimit="10" stroke-linecap="round" stroke-linejoin="round"/>
<path d="M53.1103 71.8914L98.4214 81.3703" stroke="#4E0F5D" stroke-width="6" stroke-miterlimit="10" stroke-linecap="round" stroke-linejoin="round"/>
<path d="M41.6443 60.314C45.9613 58.1816 47.1559 51.7868 44.3126 46.0309C41.4693 40.275 35.6648 37.3376 31.3479 39.4701C27.031 41.6025 25.8364 47.9973 28.6796 53.7532C31.5229 59.5091 37.3274 62.4465 41.6443 60.314Z" fill="#BAFEF1"/>
</svg>
